<svg xmlns="http://www.w3.org/2000/svg" width="233.38" height="498.53" viewBox="0 0 233.38 498.53">
  <path id="Intersection_7" data-name="Intersection 7" d="M649.859,677.961a1.547,1.547,0,0,1,1.346-1.431V575.778l-22.172-19.765v29.594a1.62,1.62,0,0,1,1.637,1.473,1.758,1.758,0,0,1-3.471,0,1.626,1.626,0,0,1,1.412-1.461V555.636l-3.495-3.116H590.3v4.888h1.341L610.492,571.7V641.21a2.389,2.389,0,0,1,1.269,2.038,2.957,2.957,0,0,1-5.834,0,2.366,2.366,0,0,1,1.189-1.99V572.979l-16.77-12.714H590.3v17.8a1.568,1.568,0,0,1,1.46,1.45,1.759,1.759,0,0,1-3.47,0,1.509,1.509,0,0,1,1.165-1.387V560.264H560.24v22.614l15.515,12.439a2,2,0,0,1,.665-.112,1.49,1.49,0,1,1-1.736,1.469,1.3,1.3,0,0,1,.021-.229l-16.152-12.951v-23.23h-6.671v20.081a1.486,1.486,0,0,1,1.041,1.346,1.76,1.76,0,0,1-3.471,0,1.415,1.415,0,0,1,.742-1.2V560.264H540.171l-8.643-7.745H514.875l.772.635v16.789a1.444,1.444,0,0,1,.856,1.266,1.759,1.759,0,0,1-3.47,0,1.458,1.458,0,0,1,.927-1.3V553.76l-1.508-1.24H496.287l-25.171-21.3v-51.7l.123-.105,23.773-19.978V452.95l-8.155-6.9h2.386l7.456,6.309v5.663l9.741-8.186-4.34-3.785h4.7l2.034,1.774,2.111-1.774h1.2l-2.719,2.285,7.932,6.918v80.4l18.02,16.147h14.82V533.687l-25.241-21.727v-39.63l29.159-24.679v-1.6H555.8v2.193l-29.16,24.679v38.452l25.242,21.732v18.7h6.671v-57.04l.242-.21,15.771-13.564V446.05h3.376v32.037L615.19,446.05h2.37l-39.619,34.076v37.152a2.358,2.358,0,0,1,1.137,1.956,2.96,2.96,0,0,1-5.839,0,2.4,2.4,0,0,1,1.327-2.07V483.029L560.24,495.35V551.8h29.212V524.288l33.867-28.661V446.05h.846v49.873L590.3,524.584V551.8h35.179l.123.11,3.01,2.684V521.852l.062-.052,24.491-20.369V446.05h.418v55.529l-.062.057L629.033,522v32.976l23.013,20.516V676.543a1.535,1.535,0,0,1,1.284,1.418,1.76,1.76,0,0,1-3.471,0ZM560.24,557.408h29.212V552.52H560.24Zm-8.358,0h6.671V552.52h-6.671Zm-10.256,0h8.568V552.52H536.171ZM496.7,459.026v78.548L514,551.8H530.73l-16.752-15.012V456.408l-6.951-6.062Zm-24.743,20.792v51.1L496.634,551.8h14.947L495.013,538.18V460.444ZM731.742,623.537a1.487,1.487,0,0,1,.946-1.559V560.264h-.048l-16.769,12.714v19.478a2.372,2.372,0,0,1,1.193,1.992,2.96,2.96,0,0,1-5.839,0,2.391,2.391,0,0,1,1.27-2.038V571.7l18.857-14.293h1.336V552.52H697.87l-3.489,3.112v30a1.561,1.561,0,0,1,1.408,1.443,1.76,1.76,0,0,1-3.471,0,1.6,1.6,0,0,1,1.64-1.466v-29.6l-22.17,19.768v32.934a1.624,1.624,0,0,1,1.34,1.45,1.758,1.758,0,0,1-3.471,0,1.622,1.622,0,0,1,1.284-1.44v-33.23l.12-.1,22.9-20.416V522L669.4,501.579V446.05h.423v55.381l24.553,20.421v32.743l3.128-2.79h35.179V524.584l-33.862-28.661V446.05h.841v49.577l33.867,28.661V551.8h29.212V495.35l-14.321-12.317v34.133a2.4,2.4,0,0,1,1.322,2.068,2.96,2.96,0,0,1-5.839,0,2.36,2.36,0,0,1,1.141-1.959V480.129L705.428,446.05H707.8l37.253,32.042V446.05h3.376V481l16.008,13.769V551.8H771.1v-18.7l25.241-21.732V472.922l-29.155-24.679V446.05h1.688v1.6l29.154,24.679v39.63l-25.241,21.727V551.8h14.825l18.02-16.147v-80.4l7.929-6.916-2.721-2.287h1.2l2.112,1.775,2.035-1.775h4.7l-4.341,3.786,9.744,8.188v-5.665l7.455-6.309h2.386l-8.153,6.9v6.493l23.9,20.08v51.7l-25.17,21.3H810.536l-1.508,1.24v16.147a1.463,1.463,0,0,1,.932,1.3,1.76,1.76,0,0,1-3.471,0,1.441,1.441,0,0,1,.851-1.264V553.154l.771-.635H791.462l-8.642,7.745H772.793v20.223a1.417,1.417,0,0,1,.742,1.2,1.76,1.76,0,0,1-3.471,0,1.484,1.484,0,0,1,1.041-1.346V560.264h-6.671v23.23l-16.153,12.951a1.216,1.216,0,0,1,.022.229,1.76,1.76,0,1,1-1.736-1.469,2,2,0,0,1,.664.112l15.516-12.439V560.264H733.534v61.7a1.628,1.628,0,0,1,1.165,1.41,1.488,1.488,0,0,1-1.4,1.483l-.085,0A1.483,1.483,0,0,1,731.742,623.537Zm41.051-66.129h8.573l5.454-4.888H772.793Zm-8.359,0H771.1V552.52h-6.671Zm-30.9,0h29.212V552.52H733.534Zm94.445-19.228L811.406,551.8h14.947l24.676-20.883v-51.1l-23.05-19.37Zm-18.967-81.772v80.384L792.26,551.8h16.721l17.31-14.23V459.029l-10.33-8.681Zm63.013,105.945a1.575,1.575,0,0,1,1.493-1.454V517.168L862.8,507.721V463.964L841.521,446.05h.6L862.8,463.46v-16.5l.063-.052,1.029-.863h.568l-1.273,1.068v16.666l12.376,10.421v23.888a1.581,1.581,0,0,1,1.53,1.459,1.759,1.759,0,0,1-3.469,0,1.578,1.578,0,0,1,1.516-1.457V474.353l-11.953-10.065v43.294L873.941,517v43.891a1.587,1.587,0,0,1,1.554,1.461,1.759,1.759,0,0,1-3.47,0Zm-424.53,0a1.582,1.582,0,0,1,1.535-1.459V516.977l.058-.052,10.7-9.366V464.3l-11.939,10.052V498.1a1.579,1.579,0,0,1,1.517,1.457,1.759,1.759,0,0,1-3.47,0,1.581,1.581,0,0,1,1.535-1.459V474.206l.062-.053L459.79,463.8V447.113l-1.267-1.063h.6l1.091.915v16.477l20.654-17.393h.6l-21.25,17.894v43.777l-.062.053-10.7,9.371V560.9a1.578,1.578,0,0,1,1.511,1.456,1.759,1.759,0,0,1-3.47,0Zm93.275-58.924a1.481,1.481,0,1,1-.21-2.939V478.5l.072-.053,25.75-19.648V446.05h.424v12.9l-.072.053L540.984,478.66v21.829a1.476,1.476,0,1,1-.087,2.945C540.855,503.434,540.813,503.433,540.77,503.429Zm239.71-1.474a1.582,1.582,0,0,1,1.527-1.458V478.66l-25.822-19.706v-12.9h.419V458.8l25.826,19.7v22a1.58,1.58,0,0,1,1.521,1.457,1.76,1.76,0,0,1-3.471,0Zm-366.514.815a1.457,1.457,0,0,1-.817-2.785v-29.7l23-18.527V446.05h1.688v6.319l-23,18.527V500.01a1.448,1.448,0,0,1-.742,2.765Q414.03,502.776,413.966,502.771ZM907.289,501.3a1.446,1.446,0,0,1,.866-1.271V470.9l-23.007-18.527V446.05h1.688v5.708l23.008,18.527V500a1.457,1.457,0,0,1,.917,1.3,1.76,1.76,0,0,1-3.471,0ZM673.926,467.787a2.373,2.373,0,0,1,1.2-2V446.05H678.5v19.711a2.4,2.4,0,0,1,1.246,2.035,2.95,2.95,0,0,1-5.819-.009Zm-30.7,0a2.386,2.386,0,0,1,1.269-2.038v-19.7h3.376v19.744a2.375,2.375,0,0,1,1.193,1.993,2.96,2.96,0,0,1-5.838,0Z" transform="translate(-446.05 910.76) rotate(-90)" fill="#f09822"/>
</svg>
