<svg width="60" height="60" viewBox="0 0 60 60" fill="none" xmlns="http://www.w3.org/2000/svg">
<path d="M40.9875 20.5266V20.4H40.7813V20.5266H40.9875ZM42.3657 23.8453V23.9062H42.511C42.5123 23.837 42.5266 23.7686 42.5532 23.7047V23.5781C42.4922 23.5781 42.4313 23.6766 42.375 23.85L42.3657 23.8453ZM36.9844 28.0266C36.6828 27.51 36.3122 27.0369 35.8829 26.6203C35.8829 26.4703 36.1172 26.25 36.6282 25.9547L38.086 24.6844C38.4719 24.082 38.6724 23.3794 38.6625 22.6641V22.4484C38.6063 21.8016 38.1375 21.2812 37.2563 20.8828C36.7313 20.5297 35.7938 20.3344 34.4438 20.2969C32.9124 20.5016 31.4168 20.918 30 21.5344C29.4532 21.9235 28.8851 22.2819 28.2985 22.6078V22.7156C28.3598 22.704 28.4175 22.6783 28.4672 22.6406C28.482 22.637 28.4973 22.6368 28.5121 22.6401C28.5269 22.6434 28.5408 22.6501 28.5526 22.6596C28.5644 22.6692 28.5738 22.6813 28.5801 22.6951C28.5865 22.7088 28.5895 22.7239 28.5891 22.7391L28.6969 22.6828H28.7485V22.7297C28.3943 23.091 27.9959 23.406 27.5625 23.6672L27.6235 23.7797H27.5719L27.4407 23.7328C27.4407 23.7703 27.3891 23.7984 27.2813 23.8078V23.8547L27.4079 24.0141C27.3447 24.0125 27.2825 23.9981 27.225 23.9719C27.0141 24.0014 26.8209 24.1063 26.6813 24.2672L26.7563 23.9438C26.997 22.9396 27.1785 21.9223 27.3 20.8969V20.8406C27.0977 20.7067 26.9188 20.5404 26.7704 20.3484C26.7754 20.272 26.7754 20.1952 26.7704 20.1187V20.0719H26.7188C26.1438 20.9375 25.0329 22.4141 23.386 24.5016C22.136 25.9859 21.4891 26.8109 21.4454 26.9766C20.9344 27.5062 20.6907 27.825 20.7141 27.9141C20.5782 28.0031 20.5219 28.0875 20.5454 28.1859C20.5377 28.1888 20.5295 28.19 20.5213 28.1893C20.5131 28.1887 20.5052 28.1863 20.498 28.1823C20.4909 28.1783 20.4847 28.1727 20.4799 28.1661C20.4752 28.1594 20.4719 28.1518 20.4704 28.1437C20.3634 28.318 20.2215 28.4684 20.0538 28.5853C19.886 28.7023 19.6959 28.7833 19.4954 28.8234L19.0266 28.9266C19.0119 28.9288 18.9977 28.934 18.9851 28.9419C18.9725 28.9499 18.9617 28.9603 18.9533 28.9727C18.9449 28.985 18.9392 28.9989 18.9365 29.0136C18.9338 29.0282 18.9341 29.0433 18.9375 29.0578V29.1141L19.1063 29.0766V29.1234L18.7219 29.2734L18.0422 29.4328H17.686C17.6344 29.4844 17.9719 29.4328 17.8407 29.4609L17.3719 29.5641C17.1 29.625 16.9547 29.6016 16.9032 29.4937H16.8516C16.8599 29.5308 16.8599 29.5692 16.8516 29.6062L16.9079 29.5312L16.5516 29.6156C16.5266 29.45 16.0438 28.8469 15.1032 27.8062C15.1032 27.6047 15.4172 27.3141 16.0969 26.9344L18.0094 25.2516C18.4375 24.7016 18.6922 23.8187 18.7735 22.6031L18.75 22.3266C18.675 21.4688 18.0563 20.7797 16.875 20.2453C16.186 19.7766 14.9438 19.5281 13.1532 19.4906C11.1571 19.7621 9.20675 20.3013 7.35474 21.0937C6.63646 21.6066 5.88826 22.0762 5.11411 22.5V22.65C5.19449 22.6363 5.27112 22.606 5.33911 22.5609C5.35784 22.5559 5.37746 22.5553 5.39648 22.559C5.4155 22.5628 5.4334 22.5709 5.4488 22.5826C5.4642 22.5944 5.47669 22.6096 5.48531 22.6269C5.49392 22.6443 5.49843 22.6634 5.49849 22.6828L5.64849 22.5984H5.72349V22.6687C5.24958 23.1331 4.72432 23.542 4.15786 23.8875L4.24224 24.0188H4.17192L4.01255 23.9625C4.01255 24.0047 3.94224 24.0375 3.78755 24.0516V24.1312L3.96099 24.3234C3.8806 24.3227 3.80108 24.3068 3.72661 24.2766C3.517 24.3201 3.31926 24.4084 3.14693 24.5354C2.97461 24.6624 2.83176 24.8251 2.72817 25.0125L2.81255 25.1437C2.9569 24.9864 3.12446 24.852 3.30942 24.7453V24.9609C3.22992 24.9777 3.15384 25.0078 3.08442 25.05L3.2813 25.3125C3.62038 24.9537 4.00304 24.6387 4.42036 24.375C4.62661 24.4266 4.73442 24.4922 4.73911 24.5625H4.89849C5.91251 23.7879 7.04189 23.1773 8.24536 22.7531V22.9031C8.03911 23.2156 7.90005 23.3719 7.82817 23.3719C7.8332 23.4733 7.87104 23.5704 7.93599 23.6484C7.95474 23.8359 7.45317 25.1016 6.4313 27.4453C4.13442 32.8609 2.20005 36.8703 0.628174 39.4734C0.642599 39.5501 0.674699 39.6223 0.721924 39.6844C0.983817 39.6417 1.23424 39.546 1.45786 39.4031H1.54224V39.5531H1.68755L1.83755 39.4687C1.83755 39.5109 1.88911 39.5344 1.99224 39.525V39.675C1.97355 39.9034 1.89603 40.123 1.76724 40.3125C1.53227 40.654 1.36077 41.0351 1.26099 41.4375V41.5078H1.4063C1.97724 40.888 2.45992 40.1924 2.84067 39.4406C4.29562 39.0526 5.70872 38.5219 7.05942 37.8562C7.8606 37.8339 8.63583 37.5673 9.2813 37.0922V37.0125L8.91567 37.1203H8.8313V37.0406C9.35682 37.0047 9.86621 36.844 10.3172 36.5719C11.711 35.4969 12.7641 34.7359 13.4766 34.2891C14.9391 33.2141 15.8875 32.1672 16.3219 31.1484L16.5657 31.0922C16.6828 31.0986 16.8001 31.0986 16.9172 31.0922C16.9172 31.0547 16.9172 31.0312 16.9641 31.0219C17.2922 30.9891 17.1329 31.0219 17.3438 30.9938L17.8922 30.8672C17.8594 30.8672 17.8454 30.8953 17.8547 30.9281L17.9391 30.8766H17.8969H17.9907L17.9485 30.9047C18.0151 30.9174 18.0835 30.9174 18.15 30.9047L18.1875 31.0641L15.6469 34.9687L15.0938 35.6625L14.8219 36.5625H14.8735L15.1454 36.45L15.0563 36.8016L15.0844 36.9047L15.1594 36.9984C15.1266 36.9984 15.1125 37.0312 15.1219 37.0687V37.125L15.2344 37.0969C15.4 36.9531 15.4704 36.8219 15.4454 36.7031C15.5616 36.7331 15.6821 36.7426 15.8016 36.7312V36.7875C15.6938 36.8156 15.6375 36.9 15.6282 37.05V37.1063H15.6891C16.5985 36.1125 18.825 32.7234 20.611 30.4172C20.5547 30.1672 21.4922 29.8203 23.4235 29.3766H23.4844C23.5532 29.6891 23.3969 30.4187 23.0157 31.5656C22.8664 31.9347 22.7549 32.3179 22.6829 32.7094C22.4943 33.1986 22.35 33.7038 22.2516 34.2187L21.5719 36.45C21.124 37.621 20.785 38.8308 20.5594 40.0641C20.6212 40.0506 20.6851 40.0506 20.7469 40.0641L20.8407 39.9797C20.8422 39.9877 20.8455 39.9954 20.8503 40.002C20.855 40.0087 20.8612 40.0142 20.8684 40.0182C20.8755 40.0222 20.8834 40.0247 20.8916 40.0253C20.8998 40.0259 20.908 40.0247 20.9157 40.0219L20.9204 39.8437H21.2157C21.3047 39.8437 21.375 39.7125 21.4407 39.5109C21.4407 39.2109 21.4875 39.0422 21.6235 39.0141C21.6926 38.6395 21.8059 38.2745 21.961 37.9266C22.033 37.5053 22.1607 37.0954 22.3407 36.7078C22.5985 35.7703 22.8094 35.3016 22.9079 35.2734L22.936 35.3859L22.7485 35.8547C22.5045 37.0265 22.1723 38.1782 21.7547 39.3L21.8532 39.7172H21.9141C22.7266 37.9703 23.8954 34.5109 25.4204 29.3391C25.4372 29.1241 25.5051 28.9163 25.6184 28.7328C25.7317 28.5494 25.8872 28.3956 26.0719 28.2844L25.9829 28.1906V28.1437C26.1257 28.1217 26.2557 28.0484 26.3485 27.9375C26.3485 27.9 26.1891 27.8391 25.8797 27.7641L26.6391 24.4828C26.723 24.3924 26.8212 24.3164 26.9297 24.2578V24.4219C26.8684 24.4335 26.8107 24.4592 26.761 24.4969L26.9063 24.7031C27.1615 24.4241 27.4495 24.177 27.7641 23.9672C27.9235 24.0094 27.9985 24.0656 28.0079 24.1172H28.1204C28.8922 23.5322 29.7511 23.0719 30.6657 22.7531V22.8609C30.5125 23.0922 30.4079 23.2094 30.3516 23.2125C30.3578 23.2874 30.3819 23.3598 30.4219 23.4234C30.1211 24.4139 29.7434 25.3793 29.2922 26.3109C28.017 29.4581 26.5389 32.5192 24.8672 35.475C24.8817 35.5333 24.9089 35.5878 24.9469 35.6344C25.1445 35.6027 25.3331 35.5292 25.5 35.4187H25.5516V35.5266H25.6735L25.7813 35.4703C25.7813 35.5016 25.8204 35.5141 25.8985 35.5078V35.625C25.8825 35.8046 25.8176 35.9764 25.711 36.1219C25.5251 36.3783 25.3899 36.6679 25.3125 36.975V37.0312H25.425C25.8586 36.5608 26.2246 36.0323 26.5125 35.4609C27.6113 35.1649 28.6788 34.7631 29.7 34.2609C30.3118 34.2451 30.9039 34.0422 31.3969 33.6797V33.6234L31.111 33.7078H31.05V33.6516C31.4484 33.6224 31.8341 33.4986 32.175 33.2906C33.2297 32.4797 34.05 31.8844 34.575 31.5562C36.2625 30.3281 37.0454 29.1516 36.9516 28.0172L36.9844 28.0266ZM36.6985 28.1016L36.736 28.5422C36.6844 28.65 36.6282 28.7062 36.5766 28.7109L36.511 27.9609C36.6329 28.0031 36.6938 28.05 36.6985 28.1016ZM3.62349 24.5484H3.54849V24.4125L3.83911 24.375V24.4453C3.76032 24.4595 3.68532 24.4898 3.6188 24.5344L3.62349 24.5484ZM2.15161 39.2719C2.00652 39.199 1.845 39.1651 1.68286 39.1734V38.9578C1.68286 38.8734 1.72036 38.8172 1.82817 38.7984C1.93599 38.7797 1.98286 38.8594 1.98755 39C2.11083 38.8304 2.25057 38.6734 2.40474 38.5312L2.56411 38.5969C2.51255 39.0328 2.37661 39.2578 2.16099 39.2719H2.15161ZM17.8782 22.8187C17.8032 22.8187 17.6532 22.5937 17.4422 22.1391V22.0031C17.5829 22.0031 17.7282 22.2187 17.8782 22.6828V22.8187ZM17.6719 21.1875L17.611 21.3328L15.4688 20.4422C16.8938 20.4891 17.6266 20.7375 17.6672 21.1875H17.6719ZM8.65317 28.9312L8.35317 28.9594V28.8234L8.65317 28.7953V28.9312ZM8.40942 24.2812H8.48442V24.4969C8.41411 24.4969 8.32505 24.6047 8.20786 24.8062V24.6562C8.3438 24.4969 8.41411 24.3703 8.40474 24.2859L8.40942 24.2812ZM7.77192 25.7812L7.80005 26.0672H7.72505L7.69692 25.7812H7.77192ZM7.43911 26.3156H7.58442C7.58442 26.55 7.50474 26.6766 7.38755 26.6859H7.31255C7.38818 26.5801 7.43208 26.4549 7.43911 26.325V26.3156ZM7.19067 27.0562H7.27505V27.1266L7.13911 27.3516H6.9938V27.2812C7.02318 27.2835 7.05267 27.2788 7.07989 27.2675C7.10711 27.2562 7.13129 27.2387 7.15047 27.2163C7.16964 27.1939 7.18328 27.1674 7.19026 27.1387C7.19725 27.1101 7.19739 27.0803 7.19067 27.0516V27.0562ZM6.94692 27.7266L6.90474 28.0828H6.82974L6.79692 27.7312H6.94692V27.7266ZM4.49536 34.6875C4.39692 35.1562 4.2938 35.4234 4.18599 35.4328V35.3625C4.17765 35.2332 4.20155 35.1038 4.25555 34.986C4.30955 34.8682 4.39195 34.7656 4.49536 34.6875ZM4.02661 35.6625V35.7328C4.0319 35.7523 4.03245 35.7728 4.02819 35.7926C4.02394 35.8123 4.01501 35.8308 4.00216 35.8464C3.98931 35.862 3.97291 35.8743 3.95433 35.8823C3.93574 35.8902 3.91553 35.8936 3.89536 35.8922V35.8219C3.89536 35.7375 3.93911 35.6844 4.02661 35.6625ZM3.89536 37.6828H4.12036V37.7625C4.03998 37.7762 3.96335 37.8065 3.89536 37.8516H3.75005C3.75005 37.7766 3.78755 37.7203 3.8813 37.6922L3.89536 37.6828ZM10.3594 35.6859C9.56539 36.03 8.81099 36.459 8.10942 36.9656C6.7438 37.4437 6.07192 37.7422 6.0938 37.8609C5.26148 38.1612 4.44757 38.5102 3.6563 38.9062C3.51716 38.9042 3.38054 38.8688 3.25786 38.8031C3.2491 38.6803 3.27581 38.5576 3.33481 38.4496C3.39382 38.3415 3.48263 38.2527 3.59067 38.1938C3.79994 38.1745 4.01075 38.2067 4.20474 38.2875C4.58544 38.1169 4.9829 37.9865 5.39067 37.8984V37.7484L4.92192 37.7859C5.33376 37.5304 5.7743 37.3242 6.23442 37.1719H6.45942V37.2422C6.07036 37.275 5.85474 37.3922 5.80786 37.5937C5.80786 37.6875 5.8688 37.725 5.96724 37.7156C6.25786 37.5328 6.40317 37.425 6.39849 37.3922C6.95474 37.2859 8.48755 36.4844 10.9969 34.9875V35.1234C10.9969 35.1891 10.786 35.3719 10.3547 35.6859H10.3594ZM6.5063 36.9516C6.86091 36.9232 7.19356 36.7685 7.4438 36.5156C7.54692 36.5156 7.60317 36.5484 7.60786 36.6375C7.24167 36.7347 6.89458 36.8932 6.5813 37.1063H6.5063V36.9609V36.9516ZM12.7454 32.175L10.8188 33.7031C10.0816 34.2243 9.3095 34.6942 8.50786 35.1094C6.22661 36.3594 4.80942 37.0109 4.2563 37.0641H4.17192C4.24067 36.8078 5.2563 34.7281 7.2188 30.825C8.62597 30.5986 9.99817 30.1922 11.3016 29.6156L11.7704 29.5781C12.1393 29.5122 12.5181 29.5262 12.8812 29.6192C13.2443 29.7122 13.5832 29.882 13.875 30.1172L13.9032 30.4031C13.5532 31.4062 13.1704 31.9937 12.7547 32.1656L12.7454 32.175ZM8.99536 30.0563L9.30474 30.0281V30.0984L8.99536 30.1266V30.0563ZM13.35 29.3203H13.575C13.786 29.4187 13.8938 29.5078 13.9032 29.5875V29.6578C13.7908 29.6593 13.68 29.631 13.582 29.5759C13.484 29.5207 13.4024 29.4406 13.3454 29.3437L13.35 29.3203ZM13.9641 25.8141C13.4634 26.2858 12.9097 26.6979 12.3141 27.0422C12.0188 27.0703 10.9079 27.5109 9.00005 28.3359C8.90467 28.2927 8.79967 28.2749 8.69536 28.2844V28.1484C8.70574 27.7711 8.83538 27.4068 9.06567 27.1078C9.21567 26.3203 9.37505 25.8703 9.53442 25.7625L11.1282 22.1766C11.1094 21.9547 11.45 21.7844 12.15 21.6656H12.375V21.8719C13.0594 21.7687 13.4907 21.7078 13.6547 21.6937C14.9204 21.5859 15.5813 21.8437 15.6329 22.4578H15.7782L15.7454 22.0969L15.9375 22.0312C16.0922 22.095 16.2283 22.1967 16.3332 22.3269C16.438 22.4572 16.5083 22.6119 16.5375 22.7766C16.5229 23.0558 16.4081 23.3204 16.2141 23.5219C16.1204 23.5219 16.0594 23.4609 16.0547 23.3203H15.8954L15.8625 23.7562C15.2219 24.7156 14.7532 25.2094 14.4563 25.2375C14.1938 25.5984 14.0344 25.7812 13.9875 25.7812L13.9641 25.8141ZM14.9438 28.3266C14.854 28.2548 14.7444 28.2123 14.6297 28.2047V27.9891H14.775L15.0938 28.1766C15.0991 28.1961 15.0996 28.2166 15.0954 28.2363C15.0911 28.2561 15.0822 28.2746 15.0693 28.2902C15.0565 28.3058 15.0401 28.3181 15.0215 28.326C15.0029 28.334 14.9827 28.3374 14.9625 28.3359L14.9438 28.3266ZM15.9375 29.5312C16.0782 29.5875 16.1625 29.6484 16.1766 29.7047H16.1063H16.0641L15.961 29.7891L15.9375 29.5312ZM16.036 30.1359V30.0797L16.2188 30.0375V30.0937L16.036 30.1359ZM16.4766 30.6281C16.6641 30.5953 16.7579 30.5859 17.1047 30.5062V30.5625L16.4391 30.7172C16.4407 30.6875 16.4407 30.6578 16.4391 30.6281H16.4766ZM17.1235 30.9047C16.8987 30.9095 16.6752 30.941 16.4579 30.9984V30.9422L17.011 30.7641L17.2782 30.7031L17.3063 30.8062C17.1891 30.8344 17.2735 30.8344 17.1375 30.9047H17.1235ZM17.7141 30.7641C17.6984 30.7683 17.682 30.7693 17.6659 30.7671C17.6498 30.7649 17.6343 30.7594 17.6203 30.7511C17.6064 30.7428 17.5942 30.7318 17.5845 30.7187C17.5749 30.7057 17.5679 30.6908 17.5641 30.675L17.7329 30.6375C17.748 30.6316 17.7642 30.6293 17.7804 30.6308C17.7965 30.6323 17.8121 30.6377 17.8258 30.6464C17.8395 30.655 17.8509 30.6668 17.8592 30.6808C17.8675 30.6947 17.8724 30.7104 17.8735 30.7266L17.7141 30.7641ZM19.3125 29.0437V28.9875L19.5891 28.9219L19.6172 29.025H19.3266L19.3125 29.0437ZM21.0188 39.5156C21.0305 39.4584 21.0305 39.3994 21.0188 39.3422H21.0797C21.0938 39.3363 21.1091 39.3337 21.1244 39.3347C21.1396 39.3357 21.1544 39.3403 21.1676 39.348C21.1808 39.3558 21.192 39.3665 21.2004 39.3793C21.2087 39.3921 21.214 39.4067 21.2157 39.4219V39.4781L20.9907 39.5297L21.0188 39.5156ZM22.2188 29.4891H22.0969C21.9357 29.5562 21.7696 29.611 21.6 29.6531L21.4875 29.6812C21.4728 29.6862 21.4572 29.6881 21.4416 29.6868C21.4261 29.6854 21.411 29.6808 21.3974 29.6733C21.3837 29.6658 21.3718 29.6556 21.3623 29.6432C21.3528 29.6309 21.346 29.6167 21.3422 29.6016L22.1438 29.4187L22.4063 29.2969L22.4954 29.3953C22.3966 29.4089 22.303 29.4476 22.2235 29.5078L22.2188 29.4891ZM22.8329 29.2922V29.2359C22.8909 29.2175 22.9428 29.1834 22.9829 29.1375L23.55 29.0062V29.0625C23.305 29.1169 23.0651 29.1921 22.8329 29.2875V29.2922ZM22.9219 28.125C22.8627 28.1468 22.8085 28.1802 22.7625 28.2234C22.7625 28.1859 22.6735 28.1859 22.5282 28.2234C22.5 28.1156 22.9219 27.9609 23.7891 27.7547L23.911 27.7266L23.9391 27.8297C23.3297 28.0078 23.0016 28.1109 22.9219 28.1203V28.125ZM24.45 26.475C24.375 27.1875 24.1454 27.5766 23.7094 27.6562V27.6L23.325 27.75L23.1563 27.7875C23.0797 27.8091 22.9985 27.8091 22.9219 27.7875L22.8704 27.6562C23.3788 26.8555 23.9361 26.0869 24.5391 25.3547H24.6704C24.6872 25.7408 24.61 26.1253 24.4454 26.475H24.45ZM27.1547 24.1594H27.1032V24.0516H27.3282V24.1078C27.2692 24.1241 27.2125 24.1478 27.1594 24.1781L27.1547 24.1594ZM26.0391 35.3625C25.9308 35.3058 25.8097 35.2784 25.6875 35.2828V35.1187C25.6875 35.0625 25.7219 35.0234 25.7907 35.0016C25.8657 35.0016 25.9079 35.0437 25.9172 35.1609C26.0064 35.028 26.1119 34.9067 26.2313 34.8L26.3485 34.8469C26.3063 35.1797 26.2032 35.3531 26.0485 35.3672L26.0391 35.3625ZM37.9688 22.8703C37.9125 22.8703 37.8047 22.7016 37.6313 22.3453V22.2375C37.7391 22.2375 37.8563 22.3969 37.9688 22.7484V22.8703ZM37.8094 21.6234L37.7579 21.7359L36.1407 21.0609C37.2188 21.0937 37.7766 21.2859 37.8094 21.6234ZM30.9704 27.5016H30.7454V27.3937H30.9704V27.4969V27.5016ZM30.7829 23.9672H30.8438V24.1312C30.7875 24.1312 30.7172 24.2094 30.6329 24.3656V24.2578C30.7119 24.1795 30.763 24.0774 30.7782 23.9672H30.7829ZM30.3141 25.1016V25.3172H30.2532V25.1016H30.3141ZM30.0563 25.5094H30.1688C30.1688 25.6937 30.1204 25.7906 30.0235 25.8H29.9625C30.018 25.7144 30.0503 25.6159 30.0563 25.5141V25.5094ZM29.8735 26.0672H29.925V26.1234L29.8266 26.2969H29.7141V26.25C29.8313 26.25 29.8829 26.1797 29.8735 26.0719V26.0672ZM29.6907 26.5734L29.6532 26.8547H29.6016V26.5781H29.7141L29.6907 26.5734ZM27.8157 31.8703C27.7407 32.2359 27.6625 32.4234 27.5813 32.4328V32.3859C27.5774 32.2872 27.5971 32.1889 27.6387 32.0993C27.6802 32.0096 27.7425 31.9312 27.8204 31.8703H27.8157ZM27.4688 32.6062V32.6531C27.4735 32.6686 27.4743 32.6849 27.4712 32.7007C27.468 32.7165 27.4611 32.7313 27.4509 32.7438C27.4407 32.7563 27.4276 32.7661 27.4128 32.7724C27.3979 32.7786 27.3817 32.7811 27.3657 32.7797V32.7234C27.3657 32.6672 27.4 32.6281 27.4688 32.6062ZM27.3704 34.1437H27.5438V34.2C27.484 34.2115 27.4268 34.2337 27.375 34.2656H27.2625C27.2625 34.2031 27.2969 34.1641 27.3657 34.1484L27.3704 34.1437ZM32.2735 32.6297C31.6734 32.8957 31.1004 33.2191 30.5625 33.5953C29.5125 33.9609 28.9969 34.1906 29.0016 34.2797C28.3811 34.515 27.7754 34.7873 27.1875 35.0953C27.0824 35.0908 26.9797 35.0619 26.8875 35.0109C26.8772 34.9163 26.8958 34.8208 26.941 34.7371C26.9863 34.6534 27.0559 34.5854 27.1407 34.5422C27.3003 34.5271 27.4612 34.5512 27.6094 34.6125C27.9012 34.4875 28.2041 34.3902 28.5141 34.3219V34.2141L28.1579 34.2422C28.4725 34.0469 28.8093 33.8895 29.161 33.7734H29.3344V33.8203C29.0391 33.8484 28.8657 33.9328 28.8375 34.0922C28.8371 34.1073 28.8402 34.1224 28.8465 34.1362C28.8529 34.15 28.8623 34.1621 28.8741 34.1716C28.8859 34.1811 28.8997 34.1878 28.9145 34.1911C28.9293 34.1944 28.9447 34.1942 28.9594 34.1906C29.1797 34.0453 29.2829 33.9656 29.2829 33.9375C29.7016 33.8625 30.8641 33.2531 32.7704 32.1094V32.2172C32.7704 32.2641 32.611 32.4047 32.3016 32.6437L32.2735 32.6297ZM29.3485 33.5672C29.6216 33.5461 29.8786 33.43 30.075 33.2391C30.0898 33.2354 30.1051 33.2353 30.1199 33.2386C30.1347 33.2419 30.1486 33.2485 30.1604 33.2581C30.1722 33.2676 30.1816 33.2797 30.188 33.2935C30.1943 33.3073 30.1974 33.3223 30.1969 33.3375C29.9221 33.4081 29.6597 33.5203 29.4188 33.6703H29.3579V33.5672H29.3485ZM34.0782 29.9672L32.625 31.1391C32.0631 31.5412 31.4725 31.9015 30.8579 32.2172C29.1297 33.1547 28.0532 33.6484 27.6282 33.6984H27.5672C27.6204 33.5016 28.3938 31.9234 29.8875 28.9641C30.9559 28.7842 31.9971 28.4692 32.986 28.0266L33.3375 27.9937C33.6176 27.944 33.905 27.9556 34.1802 28.0276C34.4553 28.0996 34.7115 28.2304 34.9313 28.4109V28.6266C34.6641 29.3766 34.3782 29.8172 34.0641 29.9531L34.0782 29.9672ZM31.2235 28.3594H31.4485V28.4156H31.2235V28.3594ZM34.5282 27.7969H34.7016C34.861 27.8766 34.9454 27.9469 34.95 28.0031V28.05C34.8638 28.0533 34.7784 28.0327 34.7031 27.9905C34.6279 27.9483 34.5657 27.8862 34.5235 27.8109L34.5282 27.7969ZM34.9969 25.1391C34.6193 25.4992 34.2008 25.8138 33.75 26.0766C32.8861 26.3331 32.0443 26.6592 31.2329 27.0516C31.1593 27.025 31.0812 27.0139 31.0032 27.0187V26.9109C31.0105 26.6245 31.1072 26.3475 31.2797 26.1187C31.3922 25.5141 31.5188 25.1812 31.65 25.1016L32.8688 22.3781C32.8688 22.2188 33.1125 22.0875 33.6375 21.9844H33.811V22.1484C34.3266 22.0641 34.65 22.0156 34.7813 22.0031C35.7188 21.9187 36.2438 22.1109 36.286 22.5844H36.3985V22.3219H36.511C36.6307 22.365 36.737 22.4387 36.8193 22.5358C36.9015 22.6329 36.9569 22.7498 36.9797 22.875C36.9563 23.0901 36.8565 23.2897 36.6985 23.4375C36.6235 23.4375 36.5813 23.3953 36.5719 23.2781H36.4594L36.4266 23.6062C35.9579 24.3422 35.5875 24.7266 35.3672 24.7406C35.1704 25.0078 35.0485 25.1438 34.9922 25.1484L34.9969 25.1391ZM35.5079 26.9578V26.7937H35.6204L35.8641 26.9437C35.8661 26.9584 35.865 26.9734 35.8607 26.9875C35.8564 27.0017 35.8492 27.0148 35.8394 27.0259C35.8296 27.0371 35.8175 27.0459 35.804 27.052C35.7905 27.058 35.7758 27.0611 35.761 27.0609C35.6916 27.008 35.6088 26.9756 35.5219 26.9672L35.5079 26.9578ZM15.1688 37.5609L15.0563 37.5891L14.9579 37.6734C14.9596 37.6886 14.9648 37.7032 14.9732 37.716C14.9815 37.7289 14.9927 37.7396 15.0059 37.7473C15.0191 37.755 15.0339 37.7596 15.0492 37.7606C15.0644 37.7616 15.0797 37.759 15.0938 37.7531C15.1688 37.7531 15.1969 37.6922 15.1829 37.6219V37.5656L15.1688 37.5609ZM14.7375 36.6984V36.7547C14.8125 36.7547 14.8407 36.6937 14.8266 36.6234V36.5672C14.8115 36.5687 14.797 36.5734 14.784 36.5812C14.7709 36.5889 14.7598 36.5994 14.7513 36.6119C14.7428 36.6244 14.7372 36.6387 14.7348 36.6536C14.7324 36.6686 14.7333 36.6839 14.7375 36.6984ZM17.8125 29.3859L17.9438 29.3531L17.9157 29.2406L17.7844 29.2734L17.8125 29.3859ZM57.4454 32.7141C56.8678 32.8748 56.2728 32.9646 55.6735 32.9812V33.0891H55.7954H55.861L56.0063 33.0328C57.3188 32.8875 57.4735 32.9391 57.4594 32.7937V32.7422L57.4454 32.7141ZM50.2969 33.6516V33.7594V33.6516ZM49.4766 30.7734L49.3594 30.7359C49.2933 30.8857 49.246 31.0432 49.2188 31.2047V31.2516C49.3125 31.2516 49.3922 31.0922 49.4719 30.7828L49.4766 30.7734ZM57.7172 32.6812V32.7891L57.9094 32.8219V32.7141L57.7172 32.6812ZM48.675 33.7969L48.3797 33.7641L48.3282 33.8766V33.9328L50.0954 33.7828V33.675L48.6891 33.7969H48.675ZM47.8735 29.925V29.8687H47.8125L47.7047 29.9391L47.7657 30.0422C47.85 30.0422 47.8875 29.9953 47.8782 29.9203L47.8735 29.925ZM58.5516 31.875H58.636C58.6829 31.875 58.7063 31.8328 58.7016 31.7625L58.6547 31.6594C58.4156 31.658 58.18 31.7177 57.9704 31.8328V31.7812L57.6094 31.8141C57.6094 31.7063 57.5719 31.65 57.5204 31.6547H57.3329C57.1125 31.6547 57.0094 31.6547 56.9016 31.7484C56.9016 31.7109 56.9016 31.6922 56.8641 31.6922H56.6532L56.5313 31.7625C56.5313 31.725 56.5313 31.7062 56.4938 31.7062L56.4188 31.7719V31.7156H56.1282H56.0579V31.8234L56.2079 31.8609H56.3485C56.3965 31.8891 56.4526 31.9007 56.5079 31.8937L56.6297 31.8328V31.875C56.2506 31.9736 55.8654 32.0472 55.4766 32.0953C55.4437 32.0672 55.4026 32.0508 55.3594 32.0484C55.3471 32.0478 55.335 32.0448 55.3239 32.0395C55.3127 32.0343 55.3027 32.0268 55.2945 32.0177C55.2862 32.0086 55.2798 31.9979 55.2757 31.9862C55.2715 31.9746 55.2697 31.9623 55.2704 31.95L55.5141 31.9172C55.568 31.9343 55.6227 31.9484 55.6782 31.9594C55.875 31.8609 55.8844 31.8234 55.9875 31.8141V31.7062C55.5762 31.7819 55.1589 31.8211 54.7407 31.8234H54.7032V31.7156C55.786 31.5844 55.425 31.6594 55.7954 31.5562C55.7954 31.5937 55.7954 31.6125 55.8329 31.6125C55.8729 31.5712 55.9258 31.5447 55.9829 31.5375H56.0579C56.4827 31.5505 56.9069 31.4951 57.3141 31.3734V31.4203L57.436 31.3594H57.5485C57.5485 31.2516 57.7079 31.2328 57.7641 31.2281V31.1109C56.4469 31.3781 56.1 31.3031 55.7344 31.4062V31.3594C55.5809 31.3949 55.4229 31.4076 55.2657 31.3969C55.2238 31.4096 55.1864 31.434 55.1579 31.4672C55.1579 31.4297 55.1579 31.4109 55.1157 31.4109L53.9954 31.5938C53.9954 31.5609 53.9954 31.5469 53.9532 31.5516C53.562 31.6661 53.1597 31.7384 52.7532 31.7672C52.7009 31.7767 52.6513 31.7975 52.6079 31.8281C52.6079 31.7953 52.6079 31.7812 52.5469 31.7859L52.0782 31.8234L51.7594 31.9031C51.7594 31.8703 51.7594 31.8562 51.6985 31.8609C51.5454 31.9052 51.3884 31.9351 51.2297 31.95C51.15 31.95 51.2672 31.95 51.2297 31.9031L51.1313 31.9594C50.9907 31.9594 51.0657 31.9594 50.5875 31.9594C49.7438 32.0625 49.8375 32.0766 49.7438 32.0813H49.4297C49.4313 32.0879 49.4313 32.0949 49.4295 32.1015C49.4278 32.1082 49.4245 32.1143 49.4199 32.1194C49.4153 32.1245 49.4095 32.1284 49.403 32.1307C49.3966 32.133 49.3897 32.1338 49.3829 32.1328C49.0266 32.0859 48.8391 32.0297 48.8391 31.9641C48.886 31.6234 48.9688 31.4484 49.0875 31.4391H49.1485L49.0969 31.5516H49.1579C49.2704 31.4906 49.3219 31.4344 49.3172 31.3828V31.2656H49.2047V31.1578C49.1942 31.0827 49.2056 31.0062 49.2375 30.9375L49.4954 30.5203V30.6281H49.6172V30.5203L49.5469 30.4219C49.6073 30.3602 49.6835 30.3164 49.7672 30.2953V30.2391H49.6032V30.075C49.8143 29.697 49.9721 29.2916 50.0719 28.8703L50.1891 28.9172C50.2641 28.9172 50.2969 28.8703 50.2922 28.7906H50.1797V28.7437C50.1716 28.6647 50.1863 28.585 50.2219 28.5141C50.3021 28.4425 50.3655 28.3542 50.4076 28.2553C50.4497 28.1565 50.4696 28.0496 50.4657 27.9422C50.4985 27.9422 50.5172 27.9422 50.5219 27.9937C50.6766 27.9047 50.7938 27.675 50.8782 27.2906C51.3012 26.3451 51.6567 25.3708 51.9422 24.375C52.8797 21.7875 52.8797 21.5156 52.9969 20.9016H52.8844C52.8929 20.9791 52.8783 21.0574 52.8422 21.1266C52.7848 21.1003 52.7226 21.086 52.6594 21.0844V21.0375C52.6641 20.7462 52.7646 20.4645 52.9454 20.2359H52.9688L53.0672 20.6109H53.1797C53.1985 20.4528 53.2283 20.2962 53.2688 20.1422C53.2688 20.0859 53.2219 20.0484 53.1329 20.0437L53.025 20.1141C53.025 20.0344 53.025 19.8281 53.025 19.5047H52.9688C52.8931 19.4443 52.8402 19.36 52.8188 19.2656L52.1954 19.3266C52.1836 19.2588 52.1598 19.1937 52.125 19.1344C52.125 19.0781 52.261 19.0219 52.5469 18.9656L52.6735 19.0125L52.7907 18.9422C52.7907 18.9797 52.8188 18.9984 52.861 18.9937L52.9782 18.9234C52.9782 18.9609 53.0063 18.9797 53.0485 18.975H53.1047V18.8484C53.0157 18.8484 52.786 18.8484 52.4204 18.8484L52.3032 18.9281V18.8438C49.3719 19.0844 47.7079 19.2234 47.311 19.2609C47.2594 19.2609 47.0532 19.2609 46.6922 19.2609C46.6922 19.3078 46.6547 19.3359 46.5657 19.3453L46.4391 19.2891L46.0125 19.3969C45.8441 19.4119 45.6747 19.4119 45.5063 19.3969C45.4378 19.4514 45.3545 19.4841 45.2672 19.4906L46.5188 19.4109C46.4287 19.4721 46.323 19.5062 46.2141 19.5094C46.1289 19.521 46.0422 19.5062 45.9657 19.4672C45.6585 19.5618 45.3453 19.6354 45.0282 19.6875L44.9016 19.6406L42.8579 19.9547C42.7714 19.9152 42.6756 19.9006 42.5813 19.9125C42.3971 19.9367 42.2153 19.9759 42.0375 20.0297L41.0485 20.4422L41.1235 20.5641C41.1953 20.5513 41.2639 20.5242 41.325 20.4844L41.6766 20.5172L41.6344 20.8453C41.4956 20.8947 41.3714 20.978 41.2732 21.0877C41.1749 21.1975 41.1057 21.3301 41.0719 21.4734C40.6032 21.6891 40.3454 21.8391 40.3454 21.9422V21.9984H40.4204L40.5516 21.9281L40.7063 22.1109V22.3641C40.7063 22.4422 39.8922 24.1609 38.2641 27.5203C36.8579 30.7547 36.1079 32.5219 36.0375 32.8406C35.5688 32.9766 35.2735 33.1734 35.1891 33.4359C35.1891 33.5203 35.3438 33.5766 35.6204 33.5953V33.7219L35.4938 33.9328V34.1859C35.4938 34.3172 35.8469 34.4172 36.5532 34.4859C36.5532 34.4437 36.5532 34.4156 36.6188 34.4109C36.6141 34.7277 36.57 35.0426 36.4875 35.3484H36.5625C36.8108 35.1061 36.975 34.7907 37.0313 34.4484H37.0922C37.1625 34.4484 37.2375 34.5234 37.3219 34.6922C37.2344 34.7266 36.9219 35.4219 36.3844 36.7781L36.4594 36.9H36.5625C37.2032 35.275 37.6063 34.3766 37.7719 34.2047C38.6157 34.1297 40.0735 33.9734 42.1454 33.7359L42.2766 33.6562C42.2761 33.6661 42.278 33.6759 42.2822 33.6849C42.2864 33.6938 42.2926 33.7016 42.3005 33.7076C42.3083 33.7136 42.3175 33.7176 42.3272 33.7193C42.3369 33.721 42.3469 33.7202 42.3563 33.7172H42.4922L42.6235 33.6375C42.623 33.6474 42.6249 33.6572 42.6291 33.6661C42.6332 33.6751 42.6395 33.6829 42.6473 33.6889C42.6552 33.6949 42.6643 33.6989 42.6741 33.7005C42.6838 33.7022 42.6938 33.7015 42.7032 33.6984L44.2735 33.5625C44.6907 33.5297 44.8829 33.4031 44.8688 33.1875C44.8688 33.1313 45.1079 33.0656 45.6047 32.9953C45.6783 32.9945 45.7514 33.0072 45.8204 33.0328C45.8204 32.9953 46.0641 32.9531 46.561 32.9109C46.561 32.6484 46.6594 32.5078 46.8047 32.4937V32.3672C46.645 32.3856 46.4878 32.4218 46.336 32.475C46.1261 32.4723 45.9171 32.4472 45.7125 32.4C45.651 32.4391 45.5826 32.4661 45.511 32.4797L44.4188 32.5125L44.2875 32.5828C44.2875 32.5422 44.261 32.525 44.2079 32.5312H44.1469L44.0063 32.6016C44.0063 32.5641 43.8891 32.5312 43.6594 32.5031L43.5188 32.5875H43.2469V32.5172C44.6532 32.3641 45.3469 32.1734 45.3282 31.9453C45.3467 31.9409 45.3661 31.9408 45.3847 31.9452C45.4033 31.9497 45.4206 31.9584 45.4352 31.9707C45.4497 31.983 45.4612 31.9986 45.4687 32.0162C45.4762 32.0337 45.4794 32.0528 45.4782 32.0719L45.8907 31.9687V31.8422L42.525 31.9359C42.525 31.9781 42.525 32.0062 42.4594 32.0109L42.0469 31.9781C41.9523 31.9837 41.8612 32.0162 41.7844 32.0719L41.6297 32.0156C41.3128 32.0353 40.9987 32.0871 40.6922 32.1703C40.3802 32.1457 40.0667 32.1457 39.7547 32.1703L39 32.2359L38.6485 32.1984C38.6485 31.9734 39.0657 30.8812 39.9563 28.9172C40.0882 28.4502 40.3366 28.0244 40.6782 27.6797C40.753 27.6807 40.8266 27.6983 40.8938 27.7312L41.4329 27.5484L41.7094 27.5906C42.2637 27.5299 42.8075 27.3959 43.3266 27.1922C43.4447 27.1752 43.5652 27.1864 43.6782 27.225L44.0907 27.1266L45.3141 27.0234C45.8905 26.9687 46.4594 26.8524 47.011 26.6766V26.55C46.786 26.55 46.6641 26.55 46.6594 26.4422C46.6594 26.2734 46.4813 26.2031 46.1625 26.2266V26.1L46.5 26.0016L47.3813 25.9266V25.8C47.3485 25.8 47.1657 25.8 46.8375 25.8V25.6641L47.1797 25.6312C47.2735 25.6312 47.311 25.5797 47.3016 25.4906C46.8329 25.4906 46.6125 25.4906 46.6079 25.4203C43.411 25.5766 41.8079 25.6062 41.7985 25.5094C41.726 25.5251 41.6574 25.5554 41.5969 25.5984L41.5125 25.4672C42.3594 23.6672 42.8563 22.7609 43.0032 22.7484C42.9945 22.8679 42.9576 22.9836 42.8954 23.0859V23.1422H43.0313C43.3688 22.3406 43.65 21.9234 43.8891 21.9047C44.8922 21.8156 43.7485 21.75 45.9 21.4359C45.9591 21.4682 46.025 21.4859 46.0922 21.4875C46.936 21.3187 48.111 21.1406 49.6172 20.9531V20.8266L48.8157 20.9016V20.775C48.903 20.7685 48.9863 20.7358 49.0547 20.6812V20.7516C49.1215 20.7356 49.1839 20.7052 49.2375 20.6625C49.3452 20.6443 49.4558 20.6573 49.5563 20.7C49.7761 20.6383 50.0001 20.5929 50.2266 20.5641L50.7282 20.5172C50.85 20.4375 50.9063 20.3672 50.9016 20.3016V20.2453C50.7541 20.2565 50.6058 20.2471 50.461 20.2172C50.459 20.2005 50.4604 20.1837 50.465 20.1676C50.4696 20.1515 50.4774 20.1365 50.4879 20.1234C50.4983 20.1103 50.5113 20.0994 50.526 20.0914C50.5407 20.0833 50.5568 20.0783 50.5735 20.0766L51.511 19.9875L51.9375 19.8797C51.9375 19.9266 51.9657 19.9453 51.9985 19.9453C52.0652 19.9294 52.1276 19.899 52.1813 19.8562H52.2516C52.1759 20.0214 52.1132 20.1922 52.0641 20.3672H51.9422C51.9358 20.2879 51.9118 20.211 51.8719 20.1422H51.811C50.6766 23.3063 50.1704 24.7781 49.1204 27.2062C48.9282 27.825 48.7688 28.1719 48.6282 28.2469C48.6277 28.262 48.6308 28.2771 48.6371 28.2909C48.6435 28.3046 48.6529 28.3168 48.6647 28.3263C48.6765 28.3358 48.6903 28.3425 48.7052 28.3458C48.72 28.3491 48.7353 28.3489 48.75 28.3453C48.7742 28.662 48.6988 28.9783 48.5344 29.25C48.0657 30.6562 47.7282 31.4109 47.5594 31.5516L47.6672 32.2125C47.6693 32.2272 47.6681 32.2421 47.6638 32.2563C47.6595 32.2705 47.6523 32.2836 47.6425 32.2947C47.6327 32.3058 47.6206 32.3147 47.6071 32.3207C47.5936 32.3268 47.5789 32.3298 47.5641 32.3297H47.4516C47.4516 32.1469 47.3672 32.0578 47.25 32.0719H47.1891C47.0319 32.3196 46.9177 32.5922 46.8516 32.8781H46.9641C47.0292 32.8459 47.0837 32.7956 47.1211 32.7333C47.1585 32.6709 47.1772 32.5992 47.175 32.5266H47.4L47.5313 32.5734C47.443 32.6881 47.3923 32.8273 47.386 32.9719L47.4469 33.075L47.2969 33.4266V33.4828C47.4485 33.4767 47.598 33.5194 47.7235 33.6047C47.849 33.5873 47.9682 33.539 48.0704 33.4641C48.2016 33.4641 48.6891 33.4641 49.5329 33.4641L49.9547 33.3187C50.2567 33.3201 50.5586 33.3076 50.8594 33.2812H51.0422L51.1407 33.2156V33.2719C51.4362 33.2285 51.7367 33.2317 52.0313 33.2812V33.3375H51.7735V33.4453C51.8487 33.4404 51.9207 33.4126 51.9797 33.3656C52.0454 33.3656 52.0829 33.3984 52.0875 33.4734C51.9676 33.4861 51.8496 33.5129 51.736 33.5531L51.6235 33.5156C51.4454 33.5625 51.4829 33.5766 51.361 33.5859L51.1829 33.5531C51.1843 33.5594 51.1843 33.5659 51.1828 33.5722C51.1813 33.5784 51.1784 33.5843 51.1744 33.5892C51.1703 33.5942 51.1652 33.5982 51.1593 33.6009C51.1535 33.6035 51.1471 33.6048 51.1407 33.6047C51.1398 33.6187 51.1421 33.6327 51.1473 33.6456C51.1526 33.6586 51.1607 33.6703 51.171 33.6797C51.1814 33.6891 51.1937 33.6961 51.2071 33.7002C51.2205 33.7042 51.2346 33.7053 51.2485 33.7031H51.4313L52.3688 33.6187L52.7297 33.5391C52.7297 33.5719 52.7297 33.5859 52.7766 33.5812L52.95 33.5156L53.2782 33.4875C53.5313 33.4875 53.5266 33.45 54.075 33.3609C54.075 33.3281 54.075 33.3141 54.1079 33.3094V33.3563C54.4779 33.3114 54.8444 33.2409 55.2047 33.1453V33.1734C55.4297 33.1219 55.3032 33.1359 55.3641 33.0891C55.3641 33.1266 55.3641 33.1453 55.4016 33.1453H55.561V33.0281H55.2422H55.2094H55.1672C55.0498 33.0501 54.9304 33.0595 54.811 33.0562L54.0094 33.0984V33.0422L54.4782 32.9812H54.6375L54.7313 32.9156V32.9719C55.3594 32.9203 55.5844 33.075 58.4813 32.4562C58.6407 32.4562 58.6266 32.3109 58.725 32.0391C58.6714 32.0437 58.6175 32.0323 58.5704 32.0062C58.2981 32.0723 58.0204 32.1131 57.7407 32.1281C57.7032 32.1281 57.6704 32.0953 57.6563 32.0297V31.9828H58.125C58.2912 31.9652 58.4513 31.9107 58.5938 31.8234C58.5938 31.8609 58.5047 31.8844 58.561 31.8797L58.5516 31.875ZM37.0313 32.2359H36.825C36.8938 31.9107 37.004 31.5956 37.1532 31.2984H37.2891C37.2463 31.6212 37.1596 31.9366 37.0313 32.2359ZM37.2797 31.2422V31.1859C37.2797 31.1156 37.3172 31.0688 37.4157 31.0453V31.1016C37.4157 31.1859 37.3782 31.2328 37.2797 31.2422ZM40.0079 33.3516V33.4078L39.6657 33.4406V33.3844L40.0079 33.3516ZM39.5954 33.3187C39.5954 33.3891 39.4969 33.4687 39.2672 33.5437L38.85 33.5109H38.7141V33.3844L39.6094 33.3L39.5954 33.3187ZM42.375 20.625H42.1875V20.5547C42.1875 20.4844 42.2204 20.4375 42.3094 20.4141H42.3844L42.525 20.4703C42.5279 20.4882 42.5266 20.5065 42.5215 20.5239C42.5163 20.5413 42.5074 20.5573 42.4952 20.5707C42.4831 20.5842 42.4681 20.5948 42.4514 20.6018C42.4347 20.6087 42.4166 20.6119 42.3985 20.6109L42.375 20.625ZM45.4969 20.0156H45.5625V20.1422H45.375C45.3731 20.1255 45.3745 20.1087 45.3791 20.0926C45.3837 20.0765 45.3914 20.0615 45.4019 20.0484C45.4124 20.0353 45.4253 20.0244 45.44 20.0164C45.4547 20.0083 45.4709 20.0033 45.4875 20.0016L45.4969 20.0156ZM44.7094 20.2922L44.4 20.2594V20.1562C44.6692 20.1383 44.9352 20.0879 45.1922 20.0062C45.1922 20.0531 45.2391 20.0719 45.3188 20.0625V20.1891H45.1969C45.1117 20.2006 45.0251 20.1859 44.9485 20.1469C44.8772 20.1954 44.7951 20.226 44.7094 20.2359V20.2922ZM45.0985 21.4219V21.3656L45.6 21.3187V21.375L45.0985 21.4219ZM45.6375 20.9859V20.9156H45.8813V20.9859H45.6375ZM45.6938 20.1281H45.6282L45.6844 19.9922L46.2422 19.9406V20.0109C46.055 20.0329 45.87 20.0705 45.6891 20.1234L45.6938 20.1281ZM45.9797 21.3328V21.2063H46.2235C46.3079 21.2063 46.3516 21.2453 46.3547 21.3234L45.9891 21.3563L45.9797 21.3328ZM47.461 19.3172L47.1469 19.4063H47.0907C46.902 19.423 46.7122 19.423 46.5235 19.4063C46.9313 19.3781 47.3204 19.35 47.461 19.3266V19.3172ZM47.1235 20.7234V20.7797L46.6922 20.8172V20.7609L47.1235 20.7234ZM47.8313 21.0609C47.8313 21.0094 47.7422 20.9719 47.5735 20.9578L47.1422 21.0797H46.8094C46.7344 21.0281 46.6969 20.9906 46.6922 20.9672H47.0766L47.9391 20.8266H48.3797V20.8969C48.1917 20.9132 48.0061 20.9509 47.8266 21.0094L47.8313 21.0609ZM52.2797 19.9125H52.3782C52.5279 19.7636 52.7045 19.6443 52.8985 19.5609C52.8024 20.131 52.5473 20.6623 52.1625 21.0937L51.9188 20.9437C52.0629 20.6056 52.1835 20.2579 52.2797 19.9031V19.9125ZM51.5297 21.2016H51.5907C51.5063 21.3609 51.4313 21.4406 51.3704 21.4453V21.2813C51.432 21.2707 51.49 21.2449 51.5391 21.2063L51.5297 21.2016ZM51.061 22.3594C51.0985 22.0651 51.2151 21.7864 51.3985 21.5531V21.5625C51.3375 21.9984 51.2391 22.2328 51.1125 22.2469V22.5234C51.0267 22.6219 50.9742 22.7449 50.9625 22.875H50.9016L50.8688 22.4953C50.9391 22.4953 50.9954 22.425 51.0329 22.3125L51.061 22.3594ZM50.8735 22.9875C50.8555 23.1493 50.8128 23.3074 50.7469 23.4562H50.686V23.2922C50.7704 23.1 50.8407 23.0016 50.8875 23.0016L50.8735 22.9875ZM47.3438 33.1875V33.1406H47.4563V33.3047C47.3954 33.3047 47.3532 33.2719 47.3344 33.1969L47.3438 33.1875ZM52.3782 33.3187C52.3782 33.2812 52.3782 33.2625 52.3172 33.2672L52.0313 33.2812V33.2344L52.7016 33.1781V33.2344C52.5785 33.2251 52.4555 33.2546 52.35 33.3187H52.3782ZM52.0407 33.1781C52.0688 33.1781 52.0407 33.2062 52.0407 33.2109C52.0407 33.2156 52.0079 33.2109 52.0407 33.1781ZM52.0735 32.3906L51.6985 32.4234V32.3437H52.0313L52.3266 32.2687C52.3266 32.3016 52.3266 32.3156 52.3875 32.3109C52.7391 32.25 52.7063 32.2313 52.8563 32.2172C52.9125 32.2172 52.95 32.25 52.9547 32.3156L52.05 32.3953L52.0735 32.3906ZM53.386 32.2781C53.2642 32.2534 53.1398 32.244 53.0157 32.25V32.2031L53.3532 32.1703V32.2172C53.3204 32.2172 53.4469 32.2172 53.386 32.2734V32.2781ZM53.4141 32.2172V32.1703H53.5969V32.2172H53.4141ZM53.8219 32.1844V32.1375C53.8706 32.1248 53.9156 32.1007 53.9532 32.0672C53.9711 32.0646 53.9895 32.0657 54.007 32.0705C54.0245 32.0753 54.0408 32.0837 54.0549 32.0952C54.069 32.1066 54.0806 32.1209 54.0889 32.1371C54.0972 32.1532 54.1021 32.1709 54.1032 32.1891L53.8219 32.1844ZM54.3422 32.1187V32.0625H54.5672V32.1187H54.3422ZM54.6516 32.0906C54.6516 32.025 54.6516 31.9875 54.7313 31.9781L54.8063 32.0766C54.8049 32.071 54.8047 32.0652 54.8056 32.0596C54.8065 32.054 54.8086 32.0486 54.8116 32.0437C54.8147 32.0389 54.8187 32.0348 54.8235 32.0316C54.8282 32.0283 54.8335 32.0261 54.8391 32.025L54.8954 32.1281L54.6516 32.0953V32.0906ZM51.3704 33.4969V33.3891H51.3375V33.4969H51.3704ZM59.0438 31.5094C59.0766 31.5094 59.0954 31.4672 59.011 31.4531C58.9266 31.4391 59.0532 31.5094 58.9688 31.5141V31.5516L59.0157 31.5187L58.9688 31.5562L58.875 31.6734L59.0579 31.6078V31.5L59.0438 31.5094ZM59.3625 31.7578H59.3297V31.8656H59.5875C59.5875 31.7953 59.4141 31.7719 59.3579 31.7719L59.3625 31.7578Z" fill="black"/>
<path d="M42.1875 23.4984V23.5687H42.3328C42.3342 23.4995 42.3485 23.4311 42.375 23.3672V23.2406C42.3141 23.2406 42.2531 23.339 42.1969 23.5125L42.1875 23.4984ZM40.7813 20.1562V20.0297H40.575V20.1562H40.7813ZM36.7875 27.6562C36.4858 27.1397 36.1152 26.6666 35.686 26.25C35.686 26.1 35.9203 25.8797 36.4313 25.5844L37.8938 24.375C38.2797 23.7726 38.4802 23.07 38.4703 22.3547V22.139C38.4141 21.4922 37.9453 20.9719 37.0641 20.5734C36.5391 20.2203 35.6016 20.025 34.2516 19.9875C32.7327 20.1861 31.2484 20.5931 29.8406 21.1969C29.2938 21.5859 28.7257 21.9443 28.1391 22.2703V22.3781C28.2003 22.3663 28.2581 22.3407 28.3078 22.3031C28.3226 22.2995 28.3379 22.2993 28.3527 22.3026C28.3675 22.3059 28.3814 22.3126 28.3932 22.3221C28.405 22.3316 28.4144 22.3438 28.4207 22.3575C28.4271 22.3713 28.4301 22.3864 28.4297 22.4015L28.5375 22.3453H28.5891V22.3922C28.2364 22.7531 27.8395 23.0681 27.4078 23.3297L27.4688 23.4422H27.4172L27.286 23.3953C27.286 23.4328 27.2344 23.4609 27.1266 23.4703V23.5172L27.2531 23.6765C27.19 23.6749 27.1278 23.6606 27.0703 23.6343C26.8593 23.6638 26.6662 23.7687 26.5266 23.9297L26.6016 23.6062C26.8423 22.6021 27.0239 21.5847 27.1453 20.5594V20.5031C26.943 20.3691 26.7641 20.2029 26.6156 20.0109C26.6207 19.9344 26.6207 19.8577 26.6156 19.7812V19.7344H26.5641C25.986 20.6 24.875 22.0765 23.2313 24.164C21.9813 25.6484 21.3344 26.4734 21.2906 26.639C20.7797 27.1687 20.536 27.4875 20.5594 27.5765C20.4235 27.6656 20.3672 27.75 20.3906 27.8484C20.383 27.8513 20.3748 27.8525 20.3666 27.8518C20.3584 27.8512 20.3505 27.8488 20.3433 27.8448C20.3362 27.8407 20.33 27.8352 20.3252 27.8286C20.3204 27.8219 20.3172 27.8143 20.3156 27.8062C20.2087 27.9805 20.0668 28.1308 19.8991 28.2478C19.7313 28.3647 19.5412 28.4458 19.3406 28.4859L18.8719 28.589C18.8572 28.5912 18.843 28.5965 18.8304 28.6044C18.8178 28.6123 18.807 28.6228 18.7986 28.6351C18.7902 28.6475 18.7845 28.6614 18.7818 28.6761C18.7791 28.6907 18.7794 28.7058 18.7828 28.7203V28.7765L18.9516 28.739V28.7859L18.5672 28.9359L17.8875 29.0953H17.5313C17.4797 29.1468 17.8172 29.0953 17.686 29.1234L17.2172 29.2265C16.9453 29.2875 16.8 29.264 16.7485 29.1562H16.6969C16.7053 29.1933 16.7053 29.2317 16.6969 29.2687L16.6688 29.1609L16.3125 29.2453C16.2875 29.0797 15.8047 28.4765 14.8641 27.4359C14.8641 27.2343 15.1781 26.9437 15.8578 26.564L17.8125 24.9093C18.2406 24.3594 18.4953 23.4765 18.5766 22.2609L18.5485 21.975C18.4735 21.1172 17.8547 20.4281 16.6735 19.8937C15.9844 19.425 14.7422 19.1765 12.9516 19.139C10.9582 19.4034 9.00949 19.9347 7.15784 20.7187C6.43956 21.2316 5.69136 21.7012 4.91721 22.125V22.275C4.99759 22.2613 5.07423 22.2309 5.14221 22.1859C5.16094 22.1809 5.18057 22.1802 5.19958 22.184C5.2186 22.1878 5.2365 22.1958 5.2519 22.2076C5.26731 22.2194 5.27979 22.2345 5.28841 22.2519C5.29702 22.2693 5.30153 22.2884 5.30159 22.3078L5.45159 22.2234H5.52659V22.2937C5.05268 22.7581 4.52742 23.167 3.96096 23.5125L4.04534 23.6437H3.97971L3.82034 23.5875C3.82034 23.6297 3.75002 23.6625 3.59534 23.6765V23.7562L3.76877 23.9484C3.68839 23.9477 3.60887 23.9318 3.5344 23.9015C3.32479 23.945 3.12705 24.0333 2.95472 24.1603C2.78239 24.2874 2.63955 24.4501 2.53596 24.6375L2.62034 24.7687C2.76646 24.6127 2.9356 24.4799 3.1219 24.375V24.5906C3.0424 24.6073 2.96631 24.6374 2.8969 24.6797L3.07502 24.9515C3.41414 24.5928 3.7968 24.2778 4.21409 24.014C4.42034 24.0656 4.52815 24.1312 4.53284 24.2015H4.69221C5.70624 23.4269 6.83562 22.8164 8.03909 22.3922V22.5422C7.83284 22.8547 7.69377 23.0109 7.6219 23.0109C7.62693 23.1123 7.66476 23.2094 7.72971 23.2875C7.74846 23.475 7.2469 24.7406 6.22502 27.0843C3.95002 32.5062 2.01877 36.5203 0.431274 39.1265C0.445864 39.2031 0.477947 39.2753 0.525024 39.3375C0.786883 39.2946 1.03728 39.199 1.26096 39.0562H1.34534V39.2062H1.49065L1.64065 39.1218C1.64065 39.164 1.69221 39.1875 1.79534 39.1781V39.3281C1.77597 39.568 1.69171 39.7981 1.55159 39.9937C1.31671 40.3353 1.14522 40.7164 1.04534 41.1187V41.189H1.19065C1.76154 40.5692 2.24422 39.8736 2.62502 39.1218C4.07995 38.7337 5.49304 38.203 6.84377 37.5375C7.64495 37.5151 8.42018 37.2486 9.06565 36.7734V36.6937L8.70002 36.8015H8.61565V36.7218C9.14117 36.6859 9.65056 36.5252 10.1016 36.2531C11.4953 35.1781 12.5485 34.4172 13.261 33.9703C14.7235 32.8953 15.6735 31.8484 16.111 30.8297L16.3547 30.7734C16.4718 30.7799 16.5892 30.7799 16.7063 30.7734C16.7063 30.7359 16.7063 30.7125 16.7531 30.7031C17.0813 30.6703 16.9219 30.7031 17.1328 30.675L17.6672 30.4687H17.761L17.7188 30.4968C17.7854 30.5096 17.8538 30.5096 17.9203 30.4968L17.9578 30.6562L15.4688 34.6172L14.9156 35.3109L14.6438 36.2203H14.6953L14.9672 36.1078L14.8781 36.4593L14.9063 36.5625L14.9813 36.6562C14.9485 36.6562 14.9344 36.689 14.9438 36.7265V36.7828L15.0563 36.7547C15.2219 36.6109 15.2922 36.4797 15.2672 36.3609C15.3834 36.3909 15.504 36.4004 15.6235 36.389V36.4453C15.5156 36.4734 15.4594 36.5578 15.45 36.7078V36.764H15.511C16.4203 35.7703 18.6469 32.3812 20.4328 30.075C20.3766 29.825 21.3141 29.4781 23.2453 29.0343H23.3063C23.375 29.3468 23.2188 30.0765 22.8375 31.2234C22.6994 31.5859 22.5973 31.9612 22.5328 32.3437C22.3442 32.8329 22.1999 33.3381 22.1016 33.8531L21.4172 36.0937C20.9692 37.2647 20.6303 38.4745 20.4047 39.7078C20.4666 39.6952 20.5303 39.6952 20.5922 39.7078L20.6906 39.6234C20.6922 39.6315 20.6954 39.6391 20.7002 39.6457C20.705 39.6524 20.7112 39.6579 20.7183 39.662C20.7255 39.666 20.7334 39.6684 20.7416 39.669C20.7498 39.6696 20.758 39.6685 20.7656 39.6656L20.7281 39.5062H21.0235C21.1125 39.5062 21.1828 39.375 21.2485 39.1734C21.2485 38.8734 21.2953 38.7047 21.4313 38.6765C21.5004 38.302 21.6137 37.9369 21.7688 37.589C21.8408 37.1678 21.9685 36.7579 22.1485 36.3703C22.4063 35.4328 22.6172 34.964 22.7156 34.9359L22.7438 35.0484L22.5563 35.5172C22.3127 36.6922 21.9805 37.847 21.5625 38.9718L21.661 39.389H21.7219C22.5344 37.6422 23.7031 34.1828 25.2281 29.0109C25.245 28.7959 25.3129 28.5881 25.4262 28.4047C25.5395 28.2212 25.695 28.0675 25.8797 27.9562L25.7906 27.8625V27.8156C25.9335 27.7935 26.0635 27.7202 26.1563 27.6094C26.1563 27.5719 25.9969 27.5109 25.6875 27.4359L26.4469 24.1547C26.5308 24.0643 26.629 23.9883 26.7375 23.9297V24.0937C26.6763 24.1055 26.6185 24.1312 26.5688 24.1687L26.7188 24.375C26.974 24.096 27.262 23.8489 27.5766 23.639C27.736 23.6812 27.811 23.7375 27.8203 23.789H27.9328C28.7021 23.2065 29.5578 22.7479 30.4688 22.4297V22.5375C30.3156 22.7687 30.211 22.8859 30.1547 22.889C30.1609 22.964 30.185 23.0363 30.225 23.1C29.9241 24.0904 29.5464 25.0558 29.0953 25.9875C27.8249 29.1359 26.3515 32.1986 24.6844 35.1562C24.6989 35.2146 24.7261 35.269 24.7641 35.3156C24.9601 35.2833 25.147 35.2098 25.3125 35.1H25.3641V35.2078H25.486L25.5938 35.1515C25.5938 35.1828 25.6328 35.1953 25.711 35.189V35.3062C25.6947 35.4858 25.6299 35.6575 25.5235 35.8031C25.3376 36.0595 25.2023 36.3491 25.125 36.6562V36.7125H25.2375C25.6711 36.242 26.0371 35.7135 26.325 35.1422C27.4311 34.8398 28.5049 34.43 29.5313 33.9187C30.143 33.9029 30.7352 33.7 31.2281 33.3375V33.2812L30.9422 33.3656H30.8906V33.3093C31.289 33.2802 31.6747 33.1564 32.0156 32.9484C33.0703 32.1375 33.8906 31.5422 34.4156 31.214C36.0938 30 36.8813 28.8094 36.7875 27.6562ZM36.4969 27.7312L36.5344 28.1718C36.4828 28.2797 36.4266 28.3359 36.375 28.3406L36.3094 27.5906C36.4313 27.6328 36.4922 27.6797 36.4969 27.7312ZM3.42659 24.1968H3.35159V24.0609L3.65159 24.0328V24.1031C3.5728 24.1173 3.49779 24.1476 3.43127 24.1922L3.42659 24.1968ZM1.95471 38.9062C1.80962 38.8334 1.6481 38.7995 1.48596 38.8078V38.5922C1.48596 38.5078 1.52346 38.4515 1.63127 38.4328C1.73909 38.414 1.78596 38.4937 1.79065 38.6343C1.91391 38.4647 2.05365 38.3077 2.20784 38.1656L2.36721 38.2312C2.31565 38.6672 2.17971 38.8922 1.96409 38.9062H1.95471ZM17.6813 22.4531C17.6063 22.4531 17.4563 22.2281 17.2453 21.7734V21.6375C17.386 21.6375 17.5313 21.8531 17.6813 22.3172V22.4531ZM17.4703 20.8219L17.4094 20.9672L15.2719 20.0765C16.6969 20.1234 17.4297 20.3719 17.4703 20.8219ZM8.43752 28.5937L8.13752 28.6219V28.4859L8.43752 28.4578V28.5937ZM8.19377 23.9437H8.26877V24.1594C8.19846 24.1594 8.1094 24.2672 7.99221 24.4687V24.3187C8.12815 24.1594 8.19846 24.0328 8.18909 23.9484L8.19377 23.9437ZM7.56096 25.439L7.58909 25.725H7.51409L7.50002 25.4297L7.56096 25.439ZM7.22815 25.9734H7.37346C7.37346 26.2078 7.29377 26.3344 7.17659 26.3437H7.10159C7.17722 26.2379 7.22112 26.1127 7.22815 25.9828V25.9734ZM6.99377 26.7187H7.07815V26.789L6.94221 27.014H6.7969V26.9437C6.82628 26.946 6.85577 26.9413 6.88299 26.93C6.91021 26.9187 6.93439 26.9012 6.95357 26.8788C6.97274 26.8564 6.98638 26.8298 6.99336 26.8012C7.00035 26.7726 7.00049 26.7427 6.99377 26.714V26.7187ZM6.75002 27.389L6.70784 27.7453H6.63284L6.60002 27.3937H6.75002V27.389ZM4.29846 34.3359C4.20002 34.8047 4.0969 35.0718 3.98909 35.0812V35.0109C3.98128 34.8812 4.00591 34.7515 4.06074 34.6337C4.11557 34.5158 4.19888 34.4135 4.30315 34.3359H4.29846ZM3.82971 35.3109V35.3812C3.83501 35.4007 3.83555 35.4212 3.83129 35.441C3.82704 35.4608 3.81811 35.4792 3.80526 35.4948C3.79241 35.5104 3.77601 35.5227 3.75743 35.5307C3.73884 35.5387 3.71863 35.5421 3.69846 35.5406V35.4703C3.69846 35.3859 3.74221 35.3328 3.82971 35.3109ZM3.69846 37.3312H3.92346V37.4109C3.84308 37.4246 3.76645 37.455 3.69846 37.5H3.55315C3.55315 37.425 3.59065 37.3687 3.6844 37.3406L3.69846 37.3312ZM10.1625 35.3343C9.36851 35.6784 8.61411 36.1075 7.91252 36.614C6.5469 37.0953 5.87034 37.3906 5.88284 37.5C5.05453 37.8114 4.24531 38.1714 3.4594 38.5781C3.32026 38.576 3.18364 38.5407 3.06096 38.475C3.0522 38.3522 3.07891 38.2295 3.13791 38.1214C3.19692 38.0134 3.28573 37.9246 3.39377 37.8656C3.60381 37.8493 3.81465 37.8847 4.00784 37.9687C4.38852 37.7981 4.78599 37.6677 5.19377 37.5797V37.4297L4.72502 37.4672C5.1369 37.2117 5.57744 37.0056 6.03752 36.8531H6.26252V36.9234C5.87346 36.9562 5.65784 37.0734 5.61096 37.275C5.61096 37.3687 5.6719 37.4062 5.77034 37.3968C6.06096 37.214 6.20627 37.1062 6.20159 37.0734C6.75471 36.9672 8.28752 36.1656 10.8 34.6687V34.8047C10.8 34.8703 10.5891 35.0531 10.1578 35.3672L10.1625 35.3343ZM6.3094 36.6C6.66401 36.5716 6.99666 36.4169 7.2469 36.164C7.35002 36.164 7.40627 36.1968 7.41096 36.2859C7.0448 36.3832 6.69772 36.5417 6.3844 36.7547H6.3094V36.6093V36.6ZM12.5485 31.8281L10.6219 33.3562C9.88434 33.8793 9.11051 34.3492 8.30627 34.7625C6.02502 36.0125 4.60784 36.664 4.05471 36.7172H3.97034C4.03909 36.4609 5.05471 34.3812 7.01721 30.4781C8.42436 30.2516 9.79655 29.8452 11.1 29.2687L11.5688 29.2312C11.9377 29.1653 12.3165 29.1793 12.6796 29.2723C13.0427 29.3653 13.3816 29.5351 13.6735 29.7703L13.7016 30.0562C13.3547 31.0547 12.9703 31.6406 12.5578 31.814L12.5485 31.8281ZM8.79846 29.7094L9.10784 29.6812V29.7515L8.79846 29.7797V29.7094ZM13.125 28.9734H13.35C13.561 29.0719 13.6688 29.1609 13.6781 29.2406V29.3109C13.5642 29.3092 13.4528 29.277 13.3555 29.2177C13.2582 29.1583 13.1786 29.074 13.125 28.9734ZM13.7391 25.4672C13.2384 25.9389 12.6847 26.351 12.0891 26.6953C11.7938 26.7234 10.6828 27.164 8.77502 27.989C8.67964 27.9458 8.57465 27.928 8.47034 27.9375V27.8015C8.48071 27.4242 8.61035 27.0599 8.84065 26.7609C8.99065 25.9734 9.15002 25.5234 9.3094 25.4156L10.9031 21.8297C10.8844 21.6078 11.225 21.4375 11.925 21.3187H12.15V21.525C12.8344 21.4218 13.2656 21.3609 13.4297 21.3469C14.6953 21.239 15.3563 21.4969 15.4078 22.1109H15.5531L15.5203 21.75H15.6797C15.8344 21.8137 15.9704 21.9154 16.0753 22.0457C16.1802 22.176 16.2505 22.3306 16.2797 22.4953C16.265 22.7745 16.1502 23.0392 15.9563 23.2406C15.8578 23.2406 15.8016 23.1797 15.7969 23.039H15.6375L15.6047 23.475C14.9641 24.4344 14.4953 24.9281 14.1985 24.9562C13.936 25.3172 13.7766 25.5 13.7297 25.5L13.7391 25.4672ZM14.7188 27.9797C14.629 27.9079 14.5194 27.8654 14.4047 27.8578V27.6422H14.55L14.8688 27.8297C14.8741 27.8492 14.8746 27.8697 14.8704 27.8894C14.8661 27.9092 14.8572 27.9277 14.8443 27.9433C14.8315 27.9589 14.8151 27.9712 14.7965 27.9791C14.7779 27.9871 14.7577 27.9905 14.7375 27.989L14.7188 27.9797ZM15.7313 29.1797C15.8719 29.2359 15.9563 29.2968 15.9703 29.3531H15.9H15.8578L15.7547 29.4375L15.7266 29.1468L15.7313 29.1797ZM15.825 29.7844V29.7281L16.0078 29.6859V29.7422L15.825 29.7844ZM16.2656 30.2765C16.4531 30.2437 16.5469 30.2344 16.8938 30.1547V30.2109L16.2281 30.3656C16.2297 30.3359 16.2297 30.3062 16.2281 30.2765H16.2656ZM16.9125 30.5531C16.6877 30.5579 16.4643 30.5894 16.2469 30.6468V30.5906L16.8047 30.4125L17.0719 30.3515L17.1 30.4547C16.9781 30.4828 17.0672 30.4828 16.9266 30.5531H16.9125ZM17.5031 30.4125C17.4874 30.4167 17.4711 30.4177 17.455 30.4155C17.4389 30.4133 17.4234 30.4078 17.4094 30.3995C17.3954 30.3912 17.3832 30.3802 17.3736 30.3672C17.3639 30.3541 17.357 30.3392 17.3531 30.3234L17.5219 30.2859C17.537 30.28 17.5533 30.2777 17.5694 30.2792C17.5856 30.2808 17.6011 30.2861 17.6148 30.2948C17.6285 30.3034 17.64 30.3152 17.6483 30.3292C17.6565 30.3431 17.6614 30.3588 17.6625 30.375L17.5031 30.4125ZM19.1016 28.6922V28.6359L19.3781 28.5703L19.4063 28.6734H19.1156L19.1016 28.6922ZM20.8078 39.164C20.8196 39.1068 20.8196 39.0478 20.8078 38.9906H20.8688C20.8829 38.9847 20.8982 38.9821 20.9134 38.9831C20.9287 38.9841 20.9435 38.9887 20.9567 38.9964C20.9699 39.0042 20.9811 39.0149 20.9894 39.0277C20.9978 39.0405 21.003 39.0551 21.0047 39.0703V39.1265L20.7797 39.1781L20.8078 39.164ZM22.0313 29.1375H21.9094C21.7482 29.2046 21.5821 29.2595 21.4125 29.3015L21.3 29.3297C21.2853 29.3347 21.2696 29.3365 21.2541 29.3352C21.2386 29.3338 21.2235 29.3292 21.2099 29.3217C21.1962 29.3143 21.1842 29.304 21.1747 29.2916C21.1653 29.2793 21.1584 29.2651 21.1547 29.25L21.9422 29.0625L22.2047 28.9406L22.2938 29.039C22.1951 29.0528 22.1015 29.0915 22.0219 29.1515L22.0313 29.1375ZM22.6453 28.9406V28.8843C22.7034 28.8659 22.7553 28.8318 22.7953 28.7859L23.3625 28.6547V28.7109C23.1175 28.7653 22.8775 28.8405 22.6453 28.9359V28.9406ZM22.7344 27.7922C22.6752 27.8139 22.621 27.8474 22.575 27.8906C22.575 27.8531 22.486 27.8531 22.3406 27.8906C22.3125 27.7828 22.7344 27.6281 23.6016 27.4219L23.7235 27.3937L23.7516 27.4969C23.1422 27.675 22.8141 27.7781 22.7344 27.7875V27.7922ZM24.2625 26.1422C24.2016 26.8359 23.9578 27.2297 23.5266 27.3281V27.2719L23.1422 27.4219L22.9735 27.4594C22.8969 27.4812 22.8157 27.4812 22.7391 27.4594L22.7063 27.3047C23.2148 26.504 23.7721 25.7353 24.375 25.0031H24.5063C24.5231 25.3892 24.4459 25.7737 24.2813 26.1234L24.2625 26.1422ZM26.9672 23.8265H26.9156V23.7187H27.1406V23.775C27.0817 23.7913 27.025 23.8149 26.9719 23.8453L26.9672 23.8265ZM25.8422 35.0109C25.734 34.954 25.6128 34.9266 25.4906 34.9312V34.7672C25.4906 34.7109 25.525 34.6718 25.5938 34.65C25.6688 34.65 25.711 34.6922 25.7203 34.8094C25.8095 34.6764 25.915 34.5551 26.0344 34.4484L26.1516 34.4953C26.1094 34.8281 26.0063 35.0015 25.8516 35.0156L25.8422 35.0109ZM37.7813 22.5C37.725 22.5 37.6172 22.3312 37.4438 21.975V21.8672C37.5516 21.8672 37.6688 22.0265 37.7813 22.3781V22.5ZM37.6219 21.2531L37.5703 21.3656L35.9531 20.6906C37.0313 20.7234 37.5891 20.9156 37.6219 21.2531ZM30.7735 27.1547H30.5485V27.0469H30.7735V27.1547ZM30.586 23.6203H30.6469V23.7844C30.5906 23.7844 30.5203 23.8625 30.436 24.0187V23.9109C30.515 23.8326 30.5661 23.7305 30.5813 23.6203H30.586ZM30.1172 24.7547V24.9703H30.0563V24.7547H30.1172ZM29.8594 25.1625H29.9719C29.9719 25.3469 29.9235 25.4422 29.8266 25.4484H29.7656C29.8211 25.3628 29.8534 25.2643 29.8594 25.1625ZM29.6766 25.7203H29.7281V25.7812L29.6297 25.9547H29.5172V25.8984C29.6344 25.8984 29.686 25.8281 29.6766 25.7203ZM29.4844 26.25L29.4469 26.5312H29.3906V26.2547H29.5031L29.4844 26.25ZM27.6094 31.5469C27.5344 31.9125 27.4563 32.1 27.375 32.1093V32.0625C27.3712 31.9637 27.3908 31.8655 27.4324 31.7758C27.4739 31.6862 27.5362 31.6077 27.6141 31.5469H27.6094ZM27.2625 32.2828V32.3297C27.2672 32.3451 27.268 32.3614 27.2649 32.3772C27.2618 32.3931 27.2548 32.4079 27.2446 32.4204C27.2344 32.4329 27.2213 32.4427 27.2065 32.4489C27.1916 32.4552 27.1755 32.4577 27.1594 32.4562V32.4C27.1594 32.3437 27.1938 32.3047 27.2625 32.2828ZM27.1875 33.8015H27.361V33.8578C27.3012 33.8692 27.244 33.8915 27.1922 33.9234H27.0797C27.0797 33.8609 27.1141 33.8219 27.1828 33.8062L27.1875 33.8015ZM32.0906 32.2875C31.4906 32.5535 30.9176 32.8769 30.3797 33.2531C29.3297 33.6187 28.8141 33.8484 28.8188 33.9375C28.1937 34.1692 27.5832 34.4384 26.9906 34.7437C26.8855 34.7392 26.7828 34.7103 26.6906 34.6593C26.6803 34.5648 26.6989 34.4693 26.7441 34.3855C26.7894 34.3018 26.859 34.2338 26.9438 34.1906C27.1034 34.1755 27.2643 34.1996 27.4125 34.2609C27.7043 34.136 28.0072 34.0387 28.3172 33.9703V33.8625L27.9656 33.8953C28.2803 33.7 28.6171 33.5426 28.9688 33.4265H29.1422V33.4734C28.8469 33.5015 28.6735 33.5859 28.6453 33.7453C28.6449 33.7604 28.648 33.7755 28.6543 33.7893C28.6606 33.8031 28.6701 33.8152 28.6819 33.8247C28.6937 33.8342 28.7075 33.8409 28.7223 33.8442C28.7371 33.8475 28.7525 33.8473 28.7672 33.8437C28.9875 33.6984 29.0906 33.6187 29.0906 33.5906C29.5094 33.5156 30.6719 32.9062 32.5781 31.7625V31.8703C32.5781 31.9125 32.4188 32.0531 32.1094 32.2922L32.0906 32.2875ZM29.1656 33.225C29.4387 33.2039 29.6958 33.0878 29.8922 32.8968C29.9672 32.8968 30.0094 32.925 30.0141 32.9953C29.7392 33.0658 29.4768 33.178 29.236 33.3281H29.175V33.225H29.1656ZM33.8906 29.5968L32.4375 30.7687C31.8735 31.1809 31.2797 31.5506 30.661 31.875C28.9328 32.8125 27.8563 33.3062 27.4313 33.3562H27.3703C27.4235 33.1594 28.1969 31.5812 29.6906 28.6219C30.759 28.442 31.8002 28.1269 32.7891 27.6844L33.1406 27.6562C33.4207 27.6065 33.7081 27.6181 33.9833 27.6901C34.2584 27.7621 34.5146 27.8929 34.7344 28.0734V28.289C34.486 29.0625 34.2188 29.4844 33.8813 29.6156L33.8906 29.5968ZM31.036 27.989H31.261V28.0453H31.036V27.989ZM34.3406 27.4265H34.5141C34.6735 27.5062 34.7578 27.5765 34.7625 27.6328V27.6797C34.6763 27.6829 34.5909 27.6623 34.5156 27.6202C34.4403 27.578 34.3782 27.5158 34.336 27.4406L34.3406 27.4265ZM34.8094 24.7687C34.4318 25.1288 34.0133 25.4435 33.5625 25.7062C32.6926 25.9742 31.846 26.3129 31.0313 26.7187C30.9577 26.6923 30.8796 26.6812 30.8016 26.6859V26.5781C30.8035 26.2915 30.8953 26.0128 31.0641 25.7812C31.1766 25.1765 31.3031 24.8437 31.4344 24.764L32.6578 22.0312C32.6578 21.8719 32.9016 21.7406 33.4266 21.6375H33.6V21.8015C34.1156 21.7172 34.4391 21.6687 34.5703 21.6562C35.5078 21.5719 36.0328 21.764 36.075 22.2375H36.1875V21.975H36.3C36.4197 22.0181 36.5261 22.0918 36.6083 22.1889C36.6906 22.286 36.7459 22.4029 36.7688 22.5281C36.7615 22.7397 36.6802 22.9421 36.5391 23.1C36.4641 23.1 36.4219 23.0578 36.4125 22.9406H36.3L36.2672 23.2687C35.7422 23.9812 35.3906 24.375 35.1563 24.375C34.9594 24.6422 34.8375 24.7781 34.7813 24.7828L34.8094 24.7687ZM35.3203 26.5875V26.4234H35.4328L35.6766 26.5734C35.6786 26.5881 35.6774 26.603 35.6732 26.6172C35.6689 26.6314 35.6616 26.6445 35.6518 26.6556C35.6421 26.6667 35.63 26.6756 35.6165 26.6816C35.6029 26.6877 35.5883 26.6907 35.5735 26.6906C35.5041 26.6377 35.4213 26.6052 35.3344 26.5969L35.3203 26.5875ZM14.9719 37.214L14.8594 37.2422L14.761 37.3265C14.7627 37.3417 14.7679 37.3563 14.7763 37.3691C14.7846 37.382 14.7958 37.3927 14.809 37.4004C14.8222 37.4081 14.837 37.4127 14.8523 37.4137C14.8675 37.4147 14.8828 37.4121 14.8969 37.4062C14.9719 37.4062 15 37.3453 14.986 37.275V37.2187L14.9719 37.214ZM14.5313 36.3515V36.4078C14.6063 36.4078 14.6344 36.3468 14.6203 36.2765V36.2203C14.6053 36.2218 14.5907 36.2265 14.5777 36.2343C14.5647 36.242 14.5535 36.2525 14.545 36.265C14.5365 36.2775 14.5309 36.2918 14.5285 36.3067C14.5261 36.3217 14.5271 36.337 14.5313 36.3515ZM17.625 30.5437L17.7094 30.4922H17.6672C17.6543 30.4955 17.6432 30.5037 17.6362 30.5151C17.6292 30.5264 17.6269 30.5401 17.6297 30.5531L17.625 30.5437ZM17.625 29.039L17.7563 29.0062L17.7281 28.8937L17.5969 28.9265L17.625 29.039ZM48.4922 33.45L48.1969 33.4172L48.1453 33.5297V33.5859L49.9125 33.4359V33.3281L48.5063 33.45H48.4922ZM50.1094 33.314V33.4219V33.314ZM57.5156 32.3437V32.4515L57.7078 32.4844V32.3765L57.5156 32.3437ZM57.2438 32.3437C56.6662 32.5045 56.0712 32.5943 55.4719 32.6109V32.7187H55.5938H55.6594L55.8047 32.6625C57.1172 32.5172 57.2719 32.5687 57.2578 32.4234V32.3437H57.2438ZM49.275 30.4125L49.1578 30.375C49.0916 30.5248 49.0444 30.6822 49.0172 30.8437V30.8906C49.111 30.8906 49.1906 30.7312 49.2703 30.4219L49.275 30.4125ZM47.6766 29.55V29.5312H47.6156L47.5078 29.6015L47.5688 29.7047C47.6531 29.7047 47.6906 29.6578 47.6813 29.5828L47.6766 29.55ZM51.15 33.1406V33.0328H51.0938V33.1406H51.15ZM58.3547 31.514H58.4391C58.486 31.514 58.5094 31.4718 58.5047 31.4015L58.4578 31.2984C58.2187 31.2971 57.9831 31.3568 57.7735 31.4718V31.4156L57.4125 31.4484C57.4125 31.3406 57.375 31.2843 57.3235 31.289H57.136C56.9156 31.289 56.8125 31.289 56.7047 31.3828C56.7047 31.3453 56.7047 31.3265 56.6672 31.3265H56.4563L56.3344 31.3969C56.3344 31.3594 56.3344 31.3406 56.2969 31.3406L56.2219 31.4062H55.9313H55.861V31.514L56.011 31.5515H56.1516C56.1996 31.5797 56.2557 31.5912 56.311 31.5843L56.4328 31.5234V31.5703C56.0537 31.6689 55.6685 31.7425 55.2797 31.7906C55.2467 31.7628 55.2056 31.7464 55.1625 31.7437C55.1502 31.7431 55.1381 31.7401 55.127 31.7348C55.1158 31.7295 55.1058 31.7221 55.0976 31.713C55.0893 31.7038 55.0829 31.6932 55.0788 31.6815C55.0746 31.6699 55.0728 31.6576 55.0735 31.6453L55.3172 31.6125C55.3711 31.6296 55.4258 31.6437 55.4813 31.6547C55.6781 31.5562 55.6875 31.5187 55.7906 31.5093V31.4015C55.3793 31.4771 54.962 31.5164 54.5438 31.5187H54.5063V31.4109C55.5891 31.2797 55.2281 31.3547 55.5985 31.2515C55.5985 31.289 55.5985 31.3078 55.636 31.3078C55.676 31.2665 55.7289 31.24 55.786 31.2328H55.861C56.2858 31.2458 56.71 31.1904 57.1172 31.0687V31.1156L57.2391 31.0547H57.3516C57.3516 30.9468 57.511 30.9281 57.5672 30.9234V30.8062C56.25 31.0734 55.9031 30.9984 55.5375 31.1015V31.0547C55.384 31.0902 55.226 31.1028 55.0688 31.0922C55.0269 31.1048 54.9895 31.1292 54.961 31.1625C54.961 31.125 54.961 31.1062 54.9188 31.1062L53.7985 31.289C53.7985 31.2562 53.7985 31.2422 53.7563 31.2469C53.3651 31.3614 52.9628 31.4337 52.5563 31.4625C52.504 31.472 52.4544 31.4928 52.411 31.5234C52.411 31.4906 52.411 31.4765 52.35 31.4812L51.8813 31.5187L51.5625 31.5984C51.5625 31.5656 51.5625 31.5515 51.5016 31.5562C51.3485 31.6006 51.1915 31.6304 51.0328 31.6453C50.9531 31.6453 51.0703 31.6453 51.0328 31.5984L50.9344 31.6547C50.7938 31.6547 50.8688 31.6547 50.3906 31.6547C49.5469 31.7578 49.6406 31.7718 49.5469 31.7765H49.2328C49.2344 31.7832 49.2344 31.7902 49.2326 31.7968C49.2309 31.8035 49.2276 31.8096 49.223 31.8147C49.2184 31.8198 49.2126 31.8237 49.2061 31.826C49.1997 31.8283 49.1928 31.8291 49.186 31.8281C48.8297 31.7812 48.6422 31.725 48.6422 31.6593C48.6891 31.3187 48.7719 31.1437 48.8906 31.1343H48.9516L48.9 31.2469H48.961C49.0735 31.1859 49.125 31.1297 49.1203 31.0781V30.9609H49.0078V30.8531C48.9973 30.778 49.0087 30.7015 49.0406 30.6328L49.2985 30.2156V30.3234H49.4203V30.2156L49.35 30.1172C49.4104 30.0555 49.4866 30.0117 49.5703 29.9906V29.9344H49.4063V29.7703C49.6174 29.3923 49.7752 28.9869 49.875 28.5656L49.9922 28.6125C50.0672 28.6125 50.1 28.5656 50.0953 28.4859H49.9828V28.439C49.9747 28.36 49.9894 28.2803 50.025 28.2093C50.1052 28.1378 50.1686 28.0494 50.2107 27.9506C50.2528 27.8518 50.2726 27.7449 50.2688 27.6375C50.3016 27.6375 50.3203 27.6375 50.325 27.689C50.4797 27.6 50.5969 27.3703 50.6813 26.9859C51.1368 26.0383 51.5237 25.0592 51.8391 24.0562C52.8 21.4687 52.7766 21.1969 52.8938 20.5828H52.7813C52.7898 20.6603 52.7751 20.7386 52.7391 20.8078C52.6816 20.7815 52.6194 20.7672 52.5563 20.7656V20.7187C52.561 20.4274 52.6614 20.1457 52.8422 19.9172H52.8938L52.9922 20.2922H53.1047C53.1235 20.134 53.1532 19.9774 53.1938 19.8234C53.1938 19.7672 53.1469 19.7297 53.0578 19.725L52.95 19.7953C52.95 19.7156 52.95 19.5094 52.95 19.1859H52.8938C52.8181 19.1256 52.7652 19.0412 52.7438 18.9469L52.1203 19.0078C52.1086 18.94 52.0848 18.8749 52.05 18.8156C52.05 18.7594 52.186 18.7031 52.4719 18.6469L52.5985 18.6937L52.7156 18.6234C52.7156 18.6609 52.7438 18.6797 52.786 18.675L52.9031 18.6047C52.9031 18.6422 52.9313 18.6609 52.9735 18.6562H53.0297V18.5297C52.9406 18.5297 52.711 18.5297 52.3453 18.5297L52.2281 18.6094V18.539C49.2969 18.7797 47.6328 18.9187 47.236 18.9562C47.1844 18.9562 46.9781 18.9562 46.6172 18.9562C46.6172 19.0031 46.5797 19.0312 46.4906 19.0406L46.3641 18.9844L45.9375 19.0922C45.7691 19.1072 45.5997 19.1072 45.4313 19.0922C45.3628 19.1467 45.2795 19.1794 45.1922 19.1859L46.4438 19.1062C46.3537 19.1674 46.2479 19.2015 46.1391 19.2047C46.0539 19.2162 45.9672 19.2015 45.8906 19.1625C45.5835 19.257 45.2703 19.3306 44.9531 19.3828L44.8266 19.3359L42.7828 19.65C42.6964 19.6105 42.6006 19.5958 42.5063 19.6078C42.3221 19.6319 42.1403 19.6711 41.9625 19.725L40.9735 20.1375L41.0485 20.2594C41.1203 20.2465 41.1888 20.2194 41.25 20.1797L41.6016 20.2125L41.5594 20.5406C41.4102 20.5678 41.2706 20.6329 41.154 20.7298C41.0374 20.8267 40.9478 20.9521 40.8938 21.0937C40.425 21.3094 40.1672 21.4594 40.1672 21.5625V21.6187H40.2422L40.3735 21.5484L40.5281 21.7312V21.9844C40.5281 22.0625 39.7141 23.7812 38.086 27.1406C36.6797 30.375 35.9297 32.1422 35.8594 32.4609C35.3906 32.5968 35.0953 32.7937 35.011 33.0562C35.011 33.1406 35.1656 33.1968 35.4422 33.2156V33.3422L35.3156 33.5531V33.8062C35.3156 33.9375 35.6688 34.0375 36.375 34.1062C36.375 34.064 36.375 34.0359 36.4406 34.0312C36.4359 34.348 36.3918 34.6629 36.3094 34.9687H36.3844C36.5962 34.7432 36.7393 34.4618 36.7969 34.1578H36.8578C36.9281 34.1578 37.0031 34.2328 37.0875 34.4015C37 34.4359 36.6875 35.1312 36.15 36.4875L36.225 36.6093H36.3C36.9406 34.9843 37.3438 34.0859 37.5094 33.914C38.3531 33.839 39.811 33.6828 41.8828 33.4453L42.0141 33.3656C42.0136 33.3755 42.0155 33.3853 42.0197 33.3942C42.0238 33.4032 42.0301 33.411 42.0379 33.417C42.0458 33.423 42.0549 33.427 42.0647 33.4286C42.0744 33.4303 42.0844 33.4296 42.0938 33.4265H42.2297L42.361 33.3468C42.3605 33.3567 42.3624 33.3665 42.3665 33.3755C42.3707 33.3844 42.377 33.3922 42.3848 33.3982C42.3926 33.4042 42.4018 33.4082 42.4115 33.4099C42.4213 33.4116 42.4313 33.4108 42.4406 33.4078L44.0625 33.2203C44.4797 33.1875 44.6719 33.0609 44.6578 32.8453C44.6578 32.789 44.8969 32.7234 45.3938 32.6531C45.4673 32.6523 45.5404 32.665 45.6094 32.6906C45.6094 32.6531 45.8531 32.6109 46.35 32.5687C46.35 32.3062 46.4438 32.1656 46.5938 32.1515V32.025C46.434 32.0434 46.2768 32.0796 46.125 32.1328C45.9151 32.1302 45.7061 32.105 45.5016 32.0578C45.44 32.0969 45.3716 32.1239 45.3 32.1375L44.2078 32.1703L44.0766 32.2406C44.0766 32.2 44.05 32.1828 43.9969 32.189H43.936L43.7953 32.2593C43.7953 32.2218 43.6781 32.189 43.4485 32.1609L43.3078 32.2453H43.036V32.2031C44.4422 32.05 45.136 31.8594 45.1172 31.6312C45.1358 31.6268 45.1551 31.6268 45.1737 31.6312C45.1923 31.6356 45.2096 31.6443 45.2242 31.6566C45.2388 31.6689 45.2503 31.6845 45.2578 31.7021C45.2652 31.7196 45.2685 31.7387 45.2672 31.7578L45.6797 31.6547V31.5281L42.3141 31.6218C42.3141 31.664 42.3141 31.6922 42.2485 31.6969L41.836 31.664C41.7413 31.6696 41.6502 31.7021 41.5735 31.7578L41.4188 31.7015C41.1018 31.7212 40.7877 31.773 40.4813 31.8562C40.1693 31.8316 39.8558 31.8316 39.5438 31.8562L38.7891 31.9218L38.3906 31.875C38.3906 31.65 38.8078 30.5578 39.6985 28.5937C39.8304 28.1267 40.0788 27.7009 40.4203 27.3562C40.4951 27.3573 40.5688 27.3749 40.636 27.4078L41.175 27.225L41.4516 27.2672C42.0059 27.2065 42.5497 27.0725 43.0688 26.8687C43.1869 26.8519 43.3074 26.8631 43.4203 26.9015L43.8328 26.8031L45.0422 26.7187C45.6186 26.664 46.1875 26.5477 46.7391 26.3718V26.2453C46.5141 26.2453 46.3922 26.2453 46.3875 26.1375C46.3875 25.9687 46.2094 25.8984 45.8906 25.9218V25.7953L46.2281 25.6969L47.1094 25.6219V25.4953C47.0766 25.4953 46.8938 25.4953 46.5656 25.4953V25.3593L46.9078 25.3265C47.0016 25.3265 47.0391 25.275 47.0297 25.1859C46.561 25.1859 46.3406 25.1859 46.336 25.1156C43.1391 25.2719 41.536 25.3015 41.5266 25.2047C41.4541 25.2204 41.3855 25.2507 41.325 25.2937L41.2406 25.1625C42.0875 23.3625 42.5844 22.4562 42.7313 22.4437C42.7227 22.5625 42.6875 22.6779 42.6281 22.7812V22.8375H42.7641C43.1016 22.0359 43.3828 21.6187 43.6219 21.6C44.625 21.5109 43.4813 21.4453 45.6328 21.1312C45.6918 21.1637 45.7577 21.1814 45.825 21.1828C46.6688 21.0109 47.8438 20.8328 49.35 20.6484V20.5219L48.5485 20.5969V20.4703C48.6357 20.4637 48.7191 20.4311 48.7875 20.3765V20.4469C48.8542 20.4309 48.9166 20.4005 48.9703 20.3578C49.078 20.3399 49.1885 20.3529 49.2891 20.3953C49.5104 20.3334 49.736 20.2879 49.9641 20.2594L50.4656 20.2125C50.5875 20.1328 50.6438 20.0625 50.6391 19.9969V19.9406C50.4916 19.9518 50.3433 19.9424 50.1985 19.9125C50.1965 19.8958 50.1979 19.879 50.2025 19.8629C50.2071 19.8468 50.2149 19.8317 50.2253 19.8187C50.2358 19.8056 50.2488 19.7947 50.2635 19.7867C50.2781 19.7786 50.2943 19.7736 50.311 19.7719L51.2485 19.6828L51.675 19.575C51.675 19.6219 51.7031 19.6406 51.736 19.6406C51.8027 19.6246 51.8651 19.5942 51.9188 19.5515H51.9891C51.9134 19.7167 51.8507 19.8875 51.8016 20.0625H51.6797C51.6733 19.9832 51.6493 19.9063 51.6094 19.8375H51.5485C50.4141 23.0015 49.9078 24.4734 48.8578 26.9015C48.6656 27.5203 48.5063 27.8672 48.3656 27.9422C48.3652 27.9573 48.3683 27.9724 48.3746 27.9862C48.381 27.9999 48.3904 28.0121 48.4022 28.0216C48.414 28.0311 48.4278 28.0378 48.4426 28.0411C48.4574 28.0444 48.4728 28.0442 48.4875 28.0406C48.5117 28.3573 48.4363 28.6736 48.2719 28.9453C47.8031 30.3515 47.4656 31.1062 47.2969 31.2469L47.3438 31.875C47.3458 31.8896 47.3446 31.9046 47.3404 31.9188C47.3361 31.933 47.3288 31.946 47.319 31.9572C47.3092 31.9683 47.2972 31.9772 47.2836 31.9832C47.2701 31.9892 47.2555 31.9923 47.2406 31.9922H47.1281C47.1281 31.8093 47.0438 31.7203 46.9266 31.7343H46.8656C46.7084 31.9821 46.5943 32.2547 46.5281 32.5406H46.6406C46.7058 32.5083 46.7603 32.4581 46.7976 32.3957C46.835 32.3334 46.8538 32.2617 46.8516 32.189H47.0766L47.2078 32.2359C47.1193 32.3505 47.0685 32.4897 47.0625 32.6344L47.1235 32.7375L46.9735 33.089V33.1453C47.125 33.1392 47.2746 33.1819 47.4 33.2672C47.5255 33.2498 47.6447 33.2014 47.7469 33.1265C47.8781 33.1265 48.3656 33.1265 49.2094 33.1265L49.6313 32.9812C49.98 32.9889 50.329 32.978 50.6766 32.9484H50.8594L50.9578 32.8828V32.939C51.2453 32.9063 51.5361 32.9174 51.8203 32.9718V33.0281H51.5625V33.1359C51.6378 33.131 51.7097 33.1032 51.7688 33.0562C51.8344 33.0562 51.8719 33.089 51.8766 33.164C51.7567 33.1767 51.6387 33.2035 51.525 33.2437L51.4125 33.2062C51.2344 33.2531 51.2719 33.2672 51.15 33.2765L50.9719 33.2437C50.9733 33.25 50.9733 33.2565 50.9718 33.2628C50.9704 33.269 50.9675 33.2749 50.9634 33.2798C50.9593 33.2848 50.9542 33.2888 50.9483 33.2915C50.9425 33.2941 50.9361 33.2954 50.9297 33.2953C50.9288 33.3093 50.9311 33.3233 50.9364 33.3362C50.9416 33.3492 50.9497 33.3609 50.9601 33.3703C50.9704 33.3797 50.9827 33.3867 50.9961 33.3908C51.0095 33.3949 51.0237 33.3959 51.0375 33.3937H51.2203L52.1578 33.3093L52.5188 33.2297C52.5188 33.2625 52.5188 33.2765 52.5656 33.2719L52.7391 33.2062L53.0672 33.1781C53.3203 33.1781 53.3156 33.1406 53.8688 33.0515C53.8688 33.0187 53.8688 33.0047 53.9016 33V33.0468C54.2833 32.9958 54.6608 32.9175 55.0313 32.8125V32.8406C55.2563 32.789 55.1297 32.8031 55.1906 32.7562C55.1906 32.7937 55.1906 32.8125 55.2281 32.8125H55.3875V32.6953H55.0688H55.036H54.9938C54.8764 32.7173 54.7569 32.7267 54.6375 32.7234L53.836 32.7656V32.7093L54.3047 32.6484H54.4641L54.5578 32.5828V32.639C55.186 32.5875 55.411 32.7422 58.3078 32.1234C58.4672 32.1234 58.4531 31.9781 58.5516 31.7062C58.4979 31.7109 58.4441 31.6994 58.3969 31.6734C58.1247 31.7395 57.8469 31.7803 57.5672 31.7953C57.5297 31.7953 57.4969 31.7625 57.4828 31.6969V31.65H57.9516C58.1177 31.6323 58.2779 31.5779 58.4203 31.4906C58.4203 31.5281 58.3266 31.5515 58.3828 31.5469L58.3547 31.514ZM36.8485 31.875H36.6422C36.7109 31.5497 36.8212 31.2346 36.9703 30.9375H37.1063C37.0635 31.2603 36.9767 31.5757 36.8485 31.875ZM37.0969 30.8812V30.825C37.0969 30.7547 37.1344 30.7078 37.2328 30.6843V30.7406C37.2328 30.825 37.1953 30.8718 37.0969 30.8812ZM39.8438 33V33.0562L39.5016 33.089V33.0328L39.8438 33ZM39.4313 32.9672C39.4313 33.0375 39.3328 33.1172 39.1031 33.1922L38.686 33.1593H38.55V33.0328L39.4453 32.9484L39.4313 32.9672ZM42.1875 20.2594H41.9813V20.189C41.9813 20.1187 42.0141 20.0719 42.1031 20.0484H42.1781L42.3188 20.1047C42.3216 20.1226 42.3204 20.1409 42.3152 20.1582C42.3101 20.1756 42.3011 20.1916 42.289 20.2051C42.2768 20.2186 42.2619 20.2292 42.2451 20.2361C42.2284 20.2431 42.2103 20.2462 42.1922 20.2453L42.1875 20.2594ZM45.3094 19.65H45.375V19.7765H45.1875C45.1856 19.7599 45.1869 19.743 45.1916 19.7269C45.1962 19.7108 45.2039 19.6958 45.2144 19.6827C45.2249 19.6696 45.2378 19.6588 45.2525 19.6507C45.2672 19.6427 45.2834 19.6377 45.3 19.6359L45.3094 19.65ZM44.5313 19.9219L44.2219 19.889V19.8281C44.4859 19.8121 44.7471 19.7649 45 19.6875C45 19.7344 45.0469 19.7531 45.1266 19.7437V19.8703H45.0047C44.9195 19.8819 44.8329 19.8671 44.7563 19.8281C44.6849 19.8767 44.6029 19.9072 44.5172 19.9172L44.5313 19.9219ZM44.9203 21.0515V20.9953L45.4219 20.9484V21.0047L44.9203 21.0515ZM45.4406 20.625V20.5547H45.6844V20.625H45.4406ZM45.4969 19.7672H45.4313L45.4875 19.6312L46.0453 19.5797V19.65C45.8581 19.672 45.6731 19.7096 45.4922 19.7625L45.4969 19.7672ZM45.7828 20.9719V20.8453H46.0266C46.111 20.8453 46.1547 20.8844 46.1578 20.9625L45.7922 20.9953L45.7828 20.9719ZM47.2641 18.9562L46.95 19.0453H46.875C46.6863 19.062 46.4965 19.062 46.3078 19.0453C46.7156 19.0172 47.1047 18.989 47.2453 18.9656L47.2641 18.9562ZM46.9266 20.3625V20.4187L46.4953 20.4562V20.4L46.9266 20.3625ZM47.6344 20.7C47.6344 20.6484 47.5453 20.6109 47.3766 20.5969L46.9453 20.7187H46.6125C46.5375 20.6672 46.5 20.6297 46.4953 20.6062H46.8797L47.7422 20.4656H48.1828V20.5359C47.9948 20.5522 47.8092 20.5899 47.6297 20.6484L47.6344 20.7ZM52.0828 19.5515H52.1813C52.331 19.4026 52.5075 19.2833 52.7016 19.2C52.6055 19.77 52.3504 20.3013 51.9656 20.7328L51.7219 20.5828C51.8661 20.2447 51.9867 19.8969 52.0828 19.5422V19.5515ZM51.3328 20.8406H51.3938C51.3094 21 51.2344 21.0797 51.1735 21.0844V20.9203C51.2351 20.9099 51.2932 20.8841 51.3422 20.8453L51.3328 20.8406ZM50.8641 21.9984C50.9016 21.7041 51.0182 21.4255 51.2016 21.1922V21.2484C51.1406 21.6844 51.0422 21.9187 50.9156 21.9328V22.2094C50.8298 22.3078 50.7773 22.4308 50.7656 22.5609H50.7047L50.6719 22.1812C50.7422 22.1812 50.7985 22.1109 50.836 21.9984H50.8641ZM50.6766 22.6265C50.6585 22.7883 50.6158 22.9464 50.55 23.0953H50.4891V22.9312C50.5735 22.739 50.6438 22.6406 50.6906 22.6406L50.6766 22.6265ZM47.1516 32.8547V32.8078H47.2641V32.9718C47.2031 32.9718 47.161 32.939 47.1422 32.864L47.1516 32.8547ZM52.186 32.9859C52.186 32.9484 52.186 32.9297 52.125 32.9344L51.8391 32.9625V32.9062H51.8672L52.5 32.8125V32.8687C52.3769 32.8594 52.2539 32.8889 52.1485 32.9531L52.186 32.9859ZM51.8485 32.8453C51.8766 32.8453 51.8485 32.8734 51.8485 32.8781C51.8485 32.8828 51.8156 32.8781 51.8485 32.8453ZM51.8813 32.0578L51.5063 32.0906V32.0156L51.8485 31.9828L52.1438 31.9078C52.1438 31.9406 52.1438 31.9547 52.2047 31.95C52.5563 31.889 52.5235 31.8703 52.6735 31.8562C52.7297 31.8562 52.7672 31.889 52.7719 31.9547L51.8672 32.0343L51.8813 32.0578ZM53.1938 31.9453C53.072 31.9206 52.9476 31.9111 52.8235 31.9172V31.875L53.161 31.8422V31.875C53.1281 31.875 53.2547 31.875 53.1938 31.9312V31.9453ZM53.2219 31.8843V31.8375H53.4047V31.8843H53.2219ZM53.6297 31.8515V31.8047C53.6784 31.7919 53.7234 31.7678 53.761 31.7343C53.7789 31.7317 53.7973 31.7329 53.8148 31.7377C53.8323 31.7425 53.8486 31.7509 53.8627 31.7624C53.8768 31.7738 53.8884 31.7881 53.8967 31.8042C53.905 31.8204 53.9099 31.8381 53.911 31.8562L53.6297 31.8515ZM54.15 31.7859V31.7297H54.375V31.7859H54.15ZM54.4594 31.7578C54.4594 31.6922 54.4594 31.6547 54.5391 31.6453L54.6141 31.7437C54.6127 31.7382 54.6125 31.7324 54.6134 31.7268C54.6143 31.7211 54.6164 31.7157 54.6194 31.7109C54.6225 31.7061 54.6265 31.7019 54.6312 31.6987C54.636 31.6955 54.6413 31.6933 54.6469 31.6922L54.7031 31.7953L54.4594 31.7625V31.7578ZM58.8375 31.1953C58.8703 31.1953 58.8891 31.1531 58.8047 31.139C58.7203 31.125 58.8469 31.1953 58.7625 31.2V31.2375L58.8094 31.2047L58.7625 31.2422L58.6688 31.3594L58.8516 31.2937V31.1859L58.8375 31.1953ZM59.1563 31.4437H59.1235V31.5515H59.3813C59.3813 31.4812 59.2078 31.4578 59.1516 31.4578L59.1563 31.4437Z" fill="#F9DC3E"/>
</svg>
