<svg width="60" height="60" viewBox="0 0 60 60" fill="none" xmlns="http://www.w3.org/2000/svg">
<path d="M35.4848 30.7514C34.3908 30.3914 32.8158 30.4688 30.7598 30.4688H22.5V41.25H31.3331C32.7131 41.25 33.6825 41.1023 34.2408 40.9992C35.2247 40.823 36.0473 40.4817 36.7083 40.0702C37.3687 39.6595 37.912 39.0366 38.3386 38.2509C38.7642 37.4653 38.9775 36.5461 38.9775 35.5181C38.9775 34.3144 38.6691 33.39 38.0517 32.5012C37.4348 31.6125 36.5794 31.1114 35.4848 30.7514ZM34.3509 25.822C35.437 25.4995 36.2559 24.9361 36.8067 24.1875C37.358 23.4384 37.6331 22.4855 37.6331 21.3544C37.6331 20.2828 37.3758 19.3322 36.8616 18.5166C36.3473 17.7009 35.6138 17.3855 34.6589 17.0841C33.7041 16.7836 32.0667 16.875 29.7464 16.875H22.5V26.25H30.2752C32.1698 26.25 33.5278 26.0719 34.3509 25.822ZM59.0625 8.73047C59.0625 4.42641 55.5736 0.9375 51.2695 0.9375H8.26172C3.95766 0.9375 0.46875 4.42641 0.46875 8.73047V51.7383C0.46875 56.0423 3.95766 59.5312 8.26172 59.5312H51.2695C55.5736 59.5312 59.0625 56.0423 59.0625 51.7383V8.73047ZM42.4467 39.7242C41.8083 41.0241 41.0184 42.0263 40.0786 42.7313C39.1383 43.4363 37.9594 44.0344 36.5423 44.3944C35.1258 44.7548 33.3886 45 31.3331 45H18.2812V12.6562H31.1344C33.6019 12.6562 35.5805 12.9417 37.0711 13.5947C38.5622 14.2486 39.7294 15.2339 40.5745 16.5923C41.4188 17.9508 41.8411 19.3612 41.8411 20.8444C41.8411 22.2248 41.4661 23.52 40.7175 24.7388C39.9684 25.9584 38.8373 26.9391 37.3252 27.6881C39.278 28.2609 40.7798 29.2369 41.8298 30.6169C42.8798 31.9973 43.4048 33.6272 43.4048 35.5069C43.4048 37.0195 43.0856 38.4248 42.4467 39.7242Z" fill="#5B4282"/>
</svg>
