<svg width="60" height="60" viewBox="0 0 60 60" fill="none" xmlns="http://www.w3.org/2000/svg">
<path d="M58.4705 27.3647L32.6348 1.53004C31.148 0.0422315 28.7348 0.0422315 27.2456 1.53004L21.8812 6.89536L28.6866 13.7007C30.2686 13.1668 32.0817 13.5249 33.3422 14.7854C34.6092 16.0538 34.9645 17.8824 34.4175 19.4696L40.9762 26.0288C42.563 25.4818 44.3944 25.8352 45.6609 27.1046C47.4328 28.875 47.4328 31.7452 45.6609 33.5166C43.8891 35.2885 41.0198 35.2885 39.247 33.5166C37.9148 32.1835 37.5853 30.2264 38.2603 28.5849L32.1441 22.4686L32.1431 38.566C32.5753 38.7793 32.9827 39.0643 33.3427 39.4229C35.1136 41.1933 35.1136 44.0625 33.3427 45.8368C31.5712 47.6072 28.7002 47.6072 26.9306 45.8368C25.1597 44.063 25.1597 41.1938 26.9306 39.4229C27.3684 38.9855 27.8747 38.655 28.4152 38.4338V22.1874C27.8747 21.9661 27.3694 21.638 26.9306 21.1979C25.5891 19.8572 25.2661 17.8885 25.9542 16.2404L19.245 9.53114L1.53 27.2452C0.0417175 28.7344 0.0417175 31.1475 1.53 32.6358L27.3661 58.4705C28.8539 59.9583 31.2661 59.9583 32.7562 58.4705L58.4709 32.7558C59.9587 31.2671 59.9587 28.8525 58.4705 27.3647Z" fill="#F34F29"/>
</svg>
