<svg width="60" height="60" viewBox="0 0 60 60" fill="none" xmlns="http://www.w3.org/2000/svg">
<path fill-rule="evenodd" clip-rule="evenodd" d="M30 2.39209C14.3686 2.39209 1.69312 15.0647 1.69312 30.699C1.69312 43.2061 9.8039 53.8163 21.0511 57.5597C22.4653 57.8222 22.9847 56.9457 22.9847 56.198C22.9847 55.523 22.9584 53.2932 22.9462 50.9279C15.0712 52.6402 13.4095 47.588 13.4095 47.588C12.1219 44.3162 10.2666 43.4461 10.2666 43.4461C7.6978 41.6893 10.4601 41.7258 10.4601 41.7258C13.3022 41.9251 14.7994 44.6429 14.7994 44.6429C17.3241 48.9694 21.4214 47.7188 23.0367 46.996C23.2908 45.1665 24.0244 43.9172 24.8339 43.2104C18.5466 42.4955 11.9367 40.0679 11.9367 29.2215C11.9367 26.131 13.043 23.6058 14.8537 21.623C14.5594 20.9105 13.5905 18.0315 15.1275 14.1324C15.1275 14.1324 17.5041 13.3716 22.9134 17.034C25.1719 16.4063 27.5939 16.0908 30 16.0801C32.4047 16.0908 34.8281 16.4054 37.0908 17.033C42.4936 13.3707 44.8673 14.1315 44.8673 14.1315C46.4081 18.0301 45.4392 20.9096 45.1453 21.6221C46.9603 23.6049 48.0586 26.1301 48.0586 29.2205C48.0586 40.0927 41.4365 42.4861 35.1333 43.1874C36.149 44.0658 37.0537 45.789 37.0537 48.4294C37.0537 52.2169 37.0209 55.2652 37.0209 56.1976C37.0209 56.9508 37.5309 57.8335 38.9653 57.5555C50.2059 53.8083 58.3073 43.2015 58.3073 30.699C58.3069 15.0657 45.6328 2.39256 30 2.39256V2.39209Z" fill="white"/>
<path d="M12.4144 43.0341C12.352 43.1747 12.1308 43.2169 11.9292 43.1208C11.723 43.0289 11.6081 42.8372 11.6747 42.6961C11.7356 42.5508 11.9573 42.511 12.1622 42.608C12.3684 42.7004 12.4856 42.8939 12.4139 43.0346L12.4144 43.0341ZM13.5609 44.3133C13.4264 44.4385 13.1625 44.3804 12.9834 44.1821C12.7978 43.9852 12.7631 43.7213 12.9005 43.5943C13.0401 43.4696 13.2961 43.5286 13.4817 43.7255C13.6664 43.9252 13.703 44.1868 13.5614 44.3138L13.5609 44.3133ZM14.6775 45.9432C14.5041 46.0641 14.22 45.9511 14.0447 45.6994C13.8712 45.4472 13.8712 45.1449 14.0494 45.0244C14.2242 44.9035 14.5041 45.0127 14.6822 45.2621C14.8547 45.5175 14.8547 45.8199 14.6775 45.9427V45.9432ZM16.2061 47.5186C16.0514 47.6897 15.7205 47.6438 15.4786 47.4108C15.2316 47.1825 15.1626 46.8577 15.3178 46.6871C15.4753 46.5155 15.8076 46.5633 16.0509 46.7949C16.298 47.0227 16.3725 47.348 16.207 47.5182L16.2061 47.5186ZM18.3155 48.4332C18.2466 48.6549 17.9287 48.7557 17.6076 48.661C17.2875 48.564 17.078 48.3047 17.1436 48.0807C17.2092 47.8571 17.5294 47.7525 17.8523 47.8533C18.1725 47.9499 18.382 48.2077 18.3155 48.4332ZM20.6325 48.6024C20.6405 48.8358 20.3686 49.029 20.0325 49.0336C19.6936 49.0416 19.4194 48.8522 19.4161 48.6225C19.4161 48.3868 19.6823 48.196 20.0208 48.1894C20.3569 48.1833 20.633 48.3708 20.633 48.6019L20.6325 48.6024ZM22.7878 48.2358C22.8281 48.4632 22.5942 48.6971 22.26 48.7594C21.9319 48.8204 21.6272 48.6788 21.585 48.4533C21.5447 48.2199 21.7828 47.986 22.1109 47.9255C22.4456 47.8679 22.7456 48.0052 22.7878 48.2363V48.2358Z" fill="white"/>
</svg>
