<svg width="60" height="60" viewBox="0 0 60 60" fill="none" xmlns="http://www.w3.org/2000/svg">
<path d="M8.92359 53.3795L4.23375 0.778687H55.7663L51.0713 53.3715L29.9686 59.2215L8.92359 53.3795Z" fill="#E44D26"/>
<path d="M30 54.7501L47.0522 50.0223L51.0642 5.07947H30V54.7501Z" fill="#F16529"/>
<path d="M30 24.5883H21.4631L20.8734 17.9817H30V11.5308H13.823L13.9776 13.2614L15.563 31.0397H30V24.5883ZM30 41.3428L29.9714 41.3508L22.7869 39.4101L22.328 34.2656H15.8512L16.755 44.3948L29.9704 48.0633L30 48.0553V41.3428Z" fill="#EBEBEB"/>
<path d="M29.9775 24.5883V31.0397H37.9214L37.1728 39.4064L29.9775 41.3484V48.0604L43.2033 44.3948L43.3003 43.305L44.8162 26.3208L44.9733 24.5883H43.2351H29.9775ZM29.9775 11.5308V17.9817H45.5606L45.69 16.5323L45.9844 13.2614L46.1386 11.5308H29.9775Z" fill="white"/>
</svg>
