<svg width="60" height="60" viewBox="0 0 60 60" fill="none" xmlns="http://www.w3.org/2000/svg">
<path d="M0.660013 0.660034H59.34V59.3405H0.660013V0.660034Z" fill="#F0DB4F"/>
<path d="M54.5377 45.345C54.1078 42.668 52.3622 40.4194 47.1914 38.3227C45.3952 37.4972 43.3927 36.9061 42.7959 35.5449C42.5841 34.7527 42.5559 34.3064 42.69 33.8269C43.0748 32.2707 44.9325 31.7855 46.4048 32.2318C47.3531 32.5496 48.2508 33.2803 48.7922 34.4461C51.3244 32.8064 51.3192 32.8172 53.0873 31.6903C52.44 30.6868 52.0945 30.2236 51.6708 29.7943C50.1478 28.0932 48.0727 27.2171 44.7539 27.2841L43.0252 27.5077C41.3686 27.9263 39.7898 28.7958 38.8641 29.9616C36.0863 33.1135 36.8784 38.6297 40.2586 40.8999C43.5886 43.3993 48.4805 43.9678 49.1053 46.305C49.7133 49.1663 47.0025 50.0925 44.3081 49.7635C42.3225 49.3505 41.2181 48.3413 40.0242 46.5061C37.8267 47.7778 37.8267 47.7778 35.5673 49.0772C36.1031 50.2486 36.6661 50.7788 37.5642 51.7936C41.8148 56.1052 52.4517 55.8933 54.3595 49.3674C54.4369 49.1433 54.9506 47.6489 54.5377 45.345ZM32.5603 27.6296H27.0717L27.0492 41.8196C27.0492 44.8374 27.2053 47.6039 26.7145 48.4519C25.9116 50.1197 23.8308 49.913 22.8825 49.5896C21.9173 49.1152 21.4266 48.4407 20.858 47.4872C20.7019 47.2135 20.5847 47.0016 20.5453 46.9852L16.0828 49.718C16.8248 51.241 17.918 52.5628 19.3181 53.4216C21.4097 54.6769 24.2208 55.0618 27.1608 54.3868C29.0742 53.8294 30.7252 52.6749 31.5895 50.9175C32.8392 48.6136 32.5711 45.825 32.5598 42.7407C32.588 37.7086 32.5603 32.6775 32.5603 27.6296Z" fill="#323330"/>
</svg>
