<svg width="60" height="60" viewBox="0 0 60 60" fill="none" xmlns="http://www.w3.org/2000/svg">
<path d="M52.8614 14.219L32.1909 2.21666C30.8873 1.47417 29.19 1.47417 27.8761 2.21666L6.98484 14.219C5.63953 14.9929 4.6875 16.4474 4.6875 18.0032V41.976C4.6875 43.5318 5.66438 44.9868 7.00969 45.7649L12.5292 48.8999C15.1673 50.1993 16.0997 50.1993 17.3002 50.1993C21.2063 50.1993 23.4375 47.8373 23.4375 43.7174V20.0503C23.4375 19.716 23.2636 19.2187 22.9355 19.2187H20.2997C19.9659 19.2187 19.2188 19.716 19.2188 20.0498V43.717C19.2188 45.5432 17.5669 47.3606 14.4797 45.817L8.77641 42.5296C8.57766 42.4218 8.4375 42.2048 8.4375 41.976V18.0032C8.4375 17.7773 8.69766 17.5504 8.89781 17.4346L29.7216 5.45291C29.9161 5.34276 30.202 5.34276 30.3961 5.45291L50.9658 17.4318C51.1627 17.5504 51.0933 17.7703 51.0933 18.0032V41.976C51.0933 42.2048 51.1791 42.4274 50.9845 42.5376L30.3192 54.5263C30.142 54.6328 29.9222 54.6328 29.7281 54.5263L24.428 51.3628C24.2681 51.2699 24.0783 51.2367 23.925 51.3224C22.4503 52.1582 22.1784 52.2693 20.7952 52.7488C20.4548 52.8674 19.9528 53.0732 20.9873 53.6531L27.9239 57.7565C28.5881 58.1409 29.3428 58.3406 30.1022 58.3406C30.8719 58.3406 31.6256 58.1409 32.2898 57.7565L52.8609 45.7649C54.2062 44.9812 54.8438 43.5318 54.8438 41.976V18.0032C54.8438 16.4474 54.2063 14.9967 52.8614 14.219ZM36.5203 38.1773C31.0238 38.1773 29.813 36.6609 29.4094 33.9276C29.3625 33.6332 29.1127 33.2812 28.8131 33.2812H26.1267C25.7944 33.2812 25.5272 33.6843 25.5272 34.0153C25.5272 37.5149 27.4298 41.7553 36.5208 41.7553C43.1016 41.7553 46.8745 39.1982 46.8745 34.6729C46.8745 30.186 43.8431 29.0085 37.4611 28.1639C31.0102 27.3112 30.3548 26.8804 30.3548 25.3692C30.3548 24.1232 30.9098 22.4615 35.6864 22.4615C39.9544 22.4615 41.5275 23.3774 42.1748 26.2542C42.2302 26.5246 42.4772 26.7187 42.7561 26.7187H45.4533C45.6192 26.7187 45.7777 26.6517 45.8939 26.5331C46.0064 26.4056 46.0659 26.2457 46.0509 26.0742C45.6333 21.1204 42.3422 18.8118 35.6859 18.8118C29.7652 18.8118 26.2331 21.3121 26.2331 25.5032C26.2331 30.0492 29.7473 31.3054 35.4309 31.8674C42.2302 32.534 42.7589 33.5278 42.7589 34.8651C42.7589 37.1878 40.8942 38.1773 36.5203 38.1773Z" fill="#83CD29"/>
</svg>
