<svg width="60" height="60" viewBox="0 0 60 60" fill="none" xmlns="http://www.w3.org/2000/svg">
<path d="M44.1597 37.7889L45.8929 33.406H50.8974L48.5219 26.7572L51.4925 19.246L60 41.8346H53.726L52.2723 37.7889H44.1597Z" fill="white"/>
<path d="M38.8029 40.5887L47.9103 18L41.8725 18.0005L35.6423 32.5978L31.2117 18.0005H26.5709L21.8142 32.5978L18.4593 25.9457L15.4233 35.2989L18.506 40.5887H24.448L28.7468 27.498L32.8449 40.5887H38.8029Z" fill="white"/>
<path d="M5.73135 32.8485H9.45042C10.5771 32.8485 11.5801 32.7229 12.4599 32.4713L13.4216 29.5085L16.1097 21.2266C15.9053 20.9023 15.6715 20.5949 15.4084 20.3058C14.0282 18.778 12.0087 18.0145 9.35036 18.0145H0V40.6032H5.73135V32.8485ZM10.654 23.2109C11.1933 23.7536 11.4627 24.48 11.4627 25.3892C11.4627 26.3061 11.2255 27.033 10.7517 27.5703C10.2317 28.1673 9.27484 28.466 7.88073 28.466H5.73135V22.3975H7.8966C9.19594 22.3975 10.1153 22.6683 10.654 23.2109Z" fill="white"/>
</svg>
