<svg width="60" height="60" viewBox="0 0 60 60" fill="none" xmlns="http://www.w3.org/2000/svg">
<path fill-rule="evenodd" clip-rule="evenodd" d="M0.571411 26.3231C0.571411 26.6527 0.668442 26.8702 0.722817 27.0816C1.07719 28.4564 1.83891 29.6362 2.74266 30.7125C4.02985 32.2462 5.60626 33.4809 7.2211 34.642C8.62172 35.6489 10.0509 36.6333 11.4572 37.6327C11.6986 37.8042 11.9269 38.0016 12.1889 38.212C11.9634 38.3339 11.7759 38.4413 11.5809 38.5402C9.72516 39.4814 7.93969 40.5366 6.29391 41.8148C5.30204 42.5855 4.34297 43.4044 3.66563 44.4745C2.57579 46.1958 2.19001 48.0295 3.00235 49.9875C3.23954 50.5594 3.60141 51.0534 4.11188 51.4186C4.27735 51.5367 4.46297 51.6539 4.65657 51.6998C5.1525 51.8166 5.65782 51.893 6.15985 51.9853L7.58157 51.9844C9.15376 51.8442 10.5848 51.3056 11.8781 50.4131C13.8994 49.0181 15.2611 47.1478 15.8466 44.7473C16.2722 43.0027 16.2895 41.2561 15.788 39.5194C15.7416 39.3581 15.683 39.2002 15.622 39.0441C15.5611 38.888 15.4894 38.7361 15.405 38.5416L18.6281 36.6881L18.6764 36.7294C18.6178 36.9211 18.5555 37.1123 18.5025 37.3059C18.1195 38.7047 17.865 40.1278 17.9564 41.5795C18.0539 43.1264 18.4856 44.5744 19.3913 45.8667C20.1234 46.912 21.8681 46.9509 22.6463 45.9019C22.9223 45.5292 23.19 45.1397 23.3911 44.7239C23.9166 43.6388 24.4031 42.5344 24.9052 41.4375L24.9928 41.2369C24.9567 41.7562 24.9145 42.2123 24.8953 42.6689C24.8653 43.3819 24.907 44.0906 25.1508 44.7689C25.3594 45.3492 25.7142 45.7828 26.3789 45.8592C26.8336 45.9113 27.1959 45.7031 27.5302 45.4392C28.0523 45.0272 28.4766 44.5181 28.7916 43.9397C29.6827 42.3033 30.5977 40.6767 31.4053 38.9991C32.2791 37.1845 33.0431 35.317 33.8545 33.4716L33.9886 33.1444C34.1803 33.8977 34.3139 34.6355 34.56 35.3339C34.8459 36.1444 35.1998 36.9356 35.5852 37.7048C35.7675 38.0681 35.7464 38.3039 35.4938 38.6086C34.4363 39.8836 33.397 41.1741 32.3569 42.4631C32.1267 42.7477 31.8975 43.0373 31.7058 43.3481C31.59 43.537 31.5131 43.7672 31.4808 43.9875C31.4184 44.4084 31.6786 44.8144 32.1291 44.9114C32.5406 45 32.9789 45.0328 33.3984 45.0019C34.8502 44.895 36.1683 44.3855 37.3336 43.522C38.8434 42.4036 39.3281 40.8773 38.9625 39.0684C38.8636 38.5777 38.6888 38.1005 38.5186 37.6275C38.4422 37.4142 38.437 37.2647 38.5763 37.0659C39.7833 35.3423 40.8145 33.5137 41.7736 31.643C41.8116 31.5694 41.8505 31.4958 41.917 31.417C42.2278 33.0342 42.6956 34.5928 43.5338 36.007C43.1063 36.4191 42.683 36.7927 42.3 37.2042C41.4567 38.1108 40.7255 39.0952 40.3439 40.2956C40.1798 40.8131 40.0538 41.3391 40.1269 41.8917C40.2403 42.75 40.9434 43.3078 41.7877 43.1123C43.5942 42.6942 45.1538 41.843 46.2933 40.335C47.0602 39.3197 47.13 38.1872 46.8089 37.0008C46.7208 36.6783 46.6163 36.3609 46.5038 35.9911C46.9495 35.8528 47.3841 35.6869 47.8336 35.5842C50.1675 35.0517 52.4761 35.1445 54.7252 35.9873C56.0381 36.4795 57.0989 37.3031 57.728 38.5988C58.4963 40.1827 58.0716 41.6855 56.5786 42.6867C56.4394 42.78 56.28 42.8536 56.1647 42.9703C56.0939 43.042 56.0513 43.1855 56.0686 43.2844C56.0784 43.342 56.2308 43.4142 56.3184 43.4133C56.8092 43.4095 57.2072 43.1522 57.5892 42.8878C58.5464 42.2255 59.2448 41.3344 59.3953 40.1611L59.4249 40.073L59.3888 39.3089C59.3742 39.2648 59.3995 39.2212 59.3963 39.188C59.1928 37.4794 58.2802 36.1542 56.9527 35.1155C55.4152 33.9131 53.5997 33.4181 51.6797 33.3398C50.115 33.2761 48.577 33.5086 47.1023 34.0444C46.6819 34.1967 46.2652 34.3772 45.8423 34.5473C45.7856 34.4447 45.7247 34.3463 45.6745 34.2445C45.2405 33.3558 44.7145 32.5064 44.5983 31.4873C44.5158 30.7636 44.4145 30.0408 44.5866 29.325C44.752 28.6364 44.9677 27.9595 45.1706 27.2803C45.2752 26.9306 45.2016 26.7347 44.8678 26.5772C44.7516 26.5223 44.625 26.4745 44.4994 26.4562C43.6791 26.3372 42.87 26.4052 42.0755 26.6363C41.7942 26.7183 41.5898 26.8758 41.5275 27.187C41.4919 27.3656 41.4192 27.5367 41.3686 27.713C41.1609 28.4456 41.0138 29.1923 40.6781 29.8903C39.8372 31.6411 38.8772 33.3258 37.8947 34.9983C37.7883 35.1788 37.6763 35.3559 37.5422 35.5748C37.1972 34.853 36.8292 34.2052 36.7177 33.4458C36.5916 32.587 36.4922 31.7297 36.7059 30.8775C36.8648 30.2419 37.0725 29.618 37.2638 28.9908C37.3542 28.6927 37.3125 28.5361 37.0425 28.3791C36.9061 28.2998 36.7519 28.2295 36.5981 28.2066C35.7473 28.0805 34.9092 28.1466 34.0884 28.4119C33.8339 28.4944 33.7003 28.6589 33.6225 28.9214C33.3938 29.6958 33.1988 30.4889 32.8777 31.2253C31.5773 34.2066 30.2395 37.1723 28.9031 40.1377C28.6242 40.7569 28.2975 41.3545 27.983 41.9573C27.9033 42.1102 27.787 42.2447 27.6877 42.3881C27.608 42.2939 27.577 42.2292 27.5775 42.1645C27.5798 41.7834 27.5344 41.3911 27.607 41.0227C27.8269 39.908 28.08 38.7994 28.3467 37.695C28.567 36.7828 28.8234 35.8791 29.0677 34.973C29.1497 34.6697 29.1511 34.3861 28.9331 34.1311C28.567 33.7041 27.802 33.6103 27.3483 33.9394L27.1477 34.0528L27.1866 33.7294C27.2822 33.0361 27.3014 32.3452 27.1111 31.6622C26.8739 30.8109 26.2664 30.3211 25.3833 30.3483C24.9717 30.3609 24.5395 30.4312 24.1584 30.5812C22.5558 31.2094 21.3234 32.3217 20.2744 33.66C20.1792 33.7814 20.0536 33.892 19.9195 33.9666C18.5634 34.7184 17.2031 35.4609 15.8433 36.2062L14.3297 37.0355C13.9238 36.6483 13.5548 36.2466 13.1363 35.9058C11.858 34.8633 10.5591 33.8466 9.27188 32.8158C8.13094 31.9022 7.02563 30.9506 6.18001 29.7408C5.55094 28.8408 5.14547 27.8559 5.10657 26.7431C5.05735 25.3252 5.45954 24.0295 6.18141 22.8234C7.10485 21.2803 8.36438 20.0419 9.74907 18.9202C11.2139 17.7342 12.7983 16.7273 14.4403 15.8081C16.7377 14.5223 19.1006 13.3842 21.6342 12.6328C24.232 11.8622 26.8678 11.4211 29.5866 11.7286C30.6553 11.8495 31.6931 12.0942 32.6461 12.6169C33.3759 13.0167 33.9745 13.5403 34.253 14.3587C34.5277 15.1641 34.5192 15.9802 34.3289 16.7981C33.9422 18.4547 33.0352 19.8202 31.8938 21.0403C30.0216 23.0405 27.7378 24.4022 25.1667 25.3017C23.6831 25.8206 22.1569 26.1464 20.5894 26.2781C19.3102 26.3855 18.0577 26.272 16.8464 25.8272C16.0444 25.5323 15.3459 25.0814 14.7844 24.427C14.6841 24.3098 14.5556 24.1828 14.3686 24.2925C14.1853 24.4003 14.153 24.5747 14.2144 24.7514C14.317 25.0448 14.4117 25.3505 14.5716 25.613C14.9733 26.2716 15.5592 26.7492 16.2042 27.1589C17.4431 27.9469 18.8278 28.2117 20.2636 28.2731C22.4423 28.3673 24.5681 28.042 26.6639 27.4575C29.6559 26.6231 32.2575 25.1494 34.3439 22.8244C36.0811 20.8884 37.3219 18.7036 37.5877 16.0655C37.7175 14.7778 37.5792 13.5164 36.9764 12.3417C36.3225 11.0691 35.2828 10.1227 34.0397 9.47063C32.2294 8.52141 30.2756 7.96875 28.2591 7.96875H26.2388C23.7966 7.96875 21.4355 8.66859 19.1405 9.50344C17.4033 10.1358 15.6998 10.882 14.0461 11.708C10.4447 13.5075 7.09079 15.6773 4.33594 18.6609C2.96344 20.1473 1.80141 21.7875 1.13297 23.7187C0.937505 24.2841 0.75188 24.8902 0.612192 25.4747L0.571411 26.3231ZM13.6617 42.3558C13.5056 44.4459 12.5583 46.1405 11.01 47.513C10.1391 48.2845 9.14016 48.8339 7.97672 49.027C7.55485 49.0969 7.12313 49.1138 6.71391 48.9389C6.13032 48.6895 5.99954 48.1716 5.98829 47.6198C5.97094 46.7405 6.27891 45.9455 6.70125 45.1889C7.2525 44.2027 8.06063 43.4508 8.9236 42.7486C10.283 41.6419 11.7577 40.7053 13.268 39.8213L13.3819 39.7744C13.6153 40.6369 13.7264 41.4886 13.6617 42.3558ZM25.4545 33.2719C25.3444 33.9394 25.2066 34.6073 25.0116 35.2542C24.3375 37.4934 23.4717 39.6633 22.5356 41.8041C22.3627 42.2002 22.1109 42.5616 21.892 42.937C21.8583 42.9952 21.8081 43.0453 21.7594 43.0936C21.4884 43.3612 21.2316 43.3472 21.0947 42.997C20.9353 42.5902 20.8373 42.1547 20.753 41.7239C20.6963 41.4347 20.7098 41.1309 20.692 40.8347C20.7103 38.7281 21.353 36.8138 22.4433 35.0316C22.8928 34.2966 23.3822 33.5963 24.1298 33.1313C24.3595 32.9883 24.6173 32.8734 24.8775 32.8003C25.2759 32.6883 25.5206 32.8725 25.4545 33.2719ZM33.5002 43.5225L36.3919 40.1461C36.5123 41.4 34.3809 43.9031 33.5002 43.5225ZM42.7359 41.2505C42.5316 41.3677 42.3089 41.452 42.0994 41.5603C41.9077 41.6597 41.8444 41.5594 41.8388 41.3944C41.835 41.2823 41.8514 41.1652 41.8823 41.0564C42.2728 39.6792 42.9914 38.5036 44.0606 37.5473L44.1356 37.5089C44.6442 38.9316 44.0564 40.4939 42.7359 41.2505Z" fill="#CB6699"/>
</svg>
