<svg width="60" height="60" viewBox="0 0 60 60" fill="none" xmlns="http://www.w3.org/2000/svg">
<path d="M54.9797 45.9844L31.05 59.5312V48.9797L45.9375 40.7812L54.9797 45.9844ZM56.6203 44.5031V16.1953L47.8641 21.2578V39.45L56.6156 44.4984L56.6203 44.5031ZM5.02032 45.9844L28.9266 59.5219V48.9797L14.0344 40.7812L5.02032 45.9844ZM3.3797 44.5031V16.1953L12.1359 21.2578V39.45L3.3797 44.5031ZM4.40626 14.3625L28.95 0.46875V10.6687L13.2234 19.3172L13.0969 19.3875L4.40626 14.3625ZM55.5844 14.3625L31.05 0.46875V10.6687L46.7766 19.3125L46.9031 19.3828L55.5938 14.3625H55.5844Z" fill="#8ED6FB"/>
<path d="M28.95 46.5796L14.236 38.4843V22.4625L28.95 30.9375V46.5796ZM31.05 46.5796L45.7641 38.4937V22.4625L31.05 30.9375V46.5796ZM15.2344 20.625L30 12.4968L44.7656 20.625L30 29.1375L15.2344 20.625Z" fill="#1C78C0"/>
</svg>
